<svg width="317" height="263" viewBox="0 0 317 263" xmlns="http://www.w3.org/2000/svg">
    <g transform="translate(0 1)" fill="none" fill-rule="evenodd">
        <path d="M59.808 202.633s117.817-98.415 185.672 0" fill="#F2F2F2" fill-rule="nonzero"/>
        <ellipse fill="#F2F2F2" fill-rule="nonzero" cx="253.514" cy="253.068" rx="54.452" ry="8.48"/>
        <ellipse stroke="#3F3D56" cx="261.548" cy="249.497" rx="54.452" ry="8.48"/>
        <path d="M285.606 161.248a5.355 5.355 0 1 0 .713-10.271l.135 2.756-1.305-2.362a5.335 5.335 0 0 0-2.748 3.016 5.355 5.355 0 0 0 3.206 6.86v.001z" fill="#57B894" fill-rule="nonzero"/>
        <path d="M292.032 194.599c-.468-2.406 1.561-4.54 3.566-5.926 2.005-1.387 4.347-2.749 5.031-5.102.983-3.382-1.945-6.479-4.224-9.15a33.114 33.114 0 0 1-4.326-6.486 8.98 8.98 0 0 1-1.035-2.949c-.18-1.499.298-2.99.779-4.42a321.523 321.523 0 0 1 5.139-14.17M285.606 160.355a5.355 5.355 0 1 0 .713-10.27l.135 2.756-1.305-2.363a5.335 5.335 0 0 0-2.748 3.017 5.355 5.355 0 0 0 3.206 6.86z" stroke="#3F3D56"/>
        <path d="M291.327 145.46a5.35 5.35 0 0 1 3.855-3.396l.441 2.621.818-2.753a5.356 5.356 0 1 1-5.114 3.529z" fill="#57B894" fill-rule="nonzero"/>
        <path d="M291.327 144.568a5.35 5.35 0 0 1 3.855-3.397l.441 2.621.818-2.752a5.356 5.356 0 1 1-5.114 3.528z" stroke="#3F3D56"/>
        <path d="M295.428 174.639a5.356 5.356 0 0 0 4.74-9.528l-.628 2.115-.446-2.651a5.356 5.356 0 1 0-3.666 10.064z" fill="#57B894" fill-rule="nonzero"/>
        <path d="M295.428 172.853a5.356 5.356 0 0 0 4.74-9.527l-.628 2.115-.446-2.651a5.356 5.356 0 1 0-3.666 10.064z" stroke="#3F3D56"/>
        <path d="M289.303 183.922a5.355 5.355 0 1 0 1.032-4.197l2.387 3.594-3.261-1.907a5.309 5.309 0 0 0-.158 2.51z" fill="#57B894" fill-rule="nonzero"/>
        <path d="M290.195 183.029a5.355 5.355 0 1 0 1.033-4.196l2.387 3.593-3.262-1.907a5.309 5.309 0 0 0-.158 2.51z" stroke="#3F3D56"/>
        <path d="M283.864 198.19s4.798-1.95 6.244-3.017c1.446-1.067 7.38-2.342 7.74-.63.358 1.712 7.21 8.515 1.793 8.56-5.417.045-12.586.921-14.03.01-1.443-.912-1.747-4.923-1.747-4.923z" fill="#656380" fill-rule="nonzero"/>
        <path d="M299.739 202.504c-5.417.046-12.587.924-14.03.01-1.1-.696-1.538-3.193-1.684-4.345l-.16.007s.303 4.022 1.747 4.936c1.443.913 8.613.035 14.03-.01 1.564-.013 2.104-.592 2.074-1.448-.217.517-.813.84-1.977.85z" fill="#000" fill-rule="nonzero" opacity=".2"/>
        <rect fill="#4044FC" fill-rule="nonzero" x="56.237" y="146.395" width="21.424" height="56.237" rx="10.712"/>
        <rect fill="#4044FC" fill-rule="nonzero" x="96.407" y="112.475" width="21.424" height="90.158" rx="10.712"/>
        <rect fill="#4044FC" fill-rule="nonzero" x="137.469" y="89.266" width="21.424" height="113.367" rx="10.712"/>
        <rect fill="#4044FC" fill-rule="nonzero" x="177.638" y="66.949" width="21.424" height="135.684" rx="10.712"/>
        <rect fill="#4044FC" fill-rule="nonzero" x="217.808" y="27.672" width="21.424" height="174.96" rx="10.712"/>
        <rect stroke="#3F3D56" x="58.915" y="143.718" width="21.424" height="56.237" rx="10.712"/>
        <rect stroke="#3F3D56" x="99.085" y="109.797" width="21.424" height="90.158" rx="10.712"/>
        <rect stroke="#3F3D56" x="140.147" y="86.588" width="21.424" height="113.367" rx="10.712"/>
        <rect stroke="#3F3D56" x="180.316" y="64.271" width="21.424" height="135.684" rx="10.712"/>
        <rect stroke="#3F3D56" x="220.486" y="24.994" width="21.424" height="174.96" rx="10.712"/>
        <path stroke="#3F3D56" d="M305.288 202.633H0"/>
        <path d="M286.155 168.712s3.415 12.31-.911 14.133c-4.326 1.824-2.96-13.677-2.96-13.677l3.87-.456z" fill="#A0616A" fill-rule="nonzero"/>
        <path d="M255.296 245.579s-3.07-.222-4.167.444a2.62 2.62 0 0 1-2.194.222s-4.825-.444-3.07 1.997c1.754 2.442 3.509 3.33 3.509 4.44 0 1.11 7.238 1.11 7.457 0 .22-1.11.44-6.881 0-7.103-.438-.222-1.535 0-1.535 0zM264.23 245.579s3.07-.222 4.167.444a2.62 2.62 0 0 0 2.193.222s4.826-.444 3.071 1.997c-1.755 2.442-3.51 3.33-3.51 4.44 0 1.11-7.238 1.11-7.457 0-.22-1.11-.439-6.881 0-7.103.439-.222 1.535 0 1.535 0z" fill="#575A89" fill-rule="nonzero"/>
        <path d="M246.417 165.93s-1.549 35.196-.664 36.978c.886 1.782 3.984 31.855 3.542 33.637-.443 1.782-2.656 9.133 0 10.247 2.655 1.114 8.41 0 8.41 0s1.549-8.91.885-13.588c-.664-4.678-.885-24.281-.885-24.281l4.426-20.494 1.55 19.38s.442 26.509-2.656 31.855c-3.099 5.346 1.106 7.574 1.106 7.574s8.41 1.113 9.296.89c.885-.222-.664-8.91 0-12.697.664-3.787 2.213-24.949 3.54-30.072 1.329-5.124 8.854-33.637 3.32-39.429-5.532-5.792-31.87 0-31.87 0z" fill="#3F3D56" fill-rule="nonzero"/>
        <circle fill="#A0616A" fill-rule="nonzero" cx="262.887" cy="87.927" r="7.588"/>
        <path d="M257.085 90.822s1.339 10.621.67 10.842c-.67.222 11.827 0 11.827 0s-2.455-6.417 0-11.506l-12.497.664z" fill="#A0616A" fill-rule="nonzero"/>
        <path d="M257.085 99.437s5.533-4.81 12.073 0l.424 1.433-3.417-.03h-9.08v-1.403z" fill="#F2F2F2" fill-rule="nonzero"/>
        <path d="M283.336 168.422c-.51.102-1.757.312-3.384.563-5.415.828-15.012 2.083-15.351 1.223-.44-1.116-1.984-5.136-3.086-3.35-1.102 1.787-.44 3.35-5.07 3.574-3.149.152-7.727-.317-10.262-1.054-1.19-.347-1.93-.75-1.86-1.18.22-1.34 2.645-26.8 2.645-29.256 0-2.457.882-14.294.882-14.294l-6.335-12.63-.498-.993s.661-2.457 2.645-2.903c1.984-.447 11.461-6.03 11.461-6.03s1.984-3.127 5.73-2.904c3.748.224 4.63-1.34 9.699 2.904 0 0 6.171 2.68 8.376 4.02 2.204 1.34 4.628 1.34 4.849 3.573.044.449-.197 1.313-.609 2.405-1.51 4.003-5.325 11.084-5.922 12.188l-.082.147s-.114 4.016.007 8.717v.01c.119 4.51.454 9.649 1.316 12.49 1.763 5.806 7.053 22.333 4.849 22.78z" fill="#575A89" fill-rule="nonzero"/>
        <path d="M273.11 83.996a5.227 5.227 0 0 0-.883-1.95 10.45 10.45 0 0 0-1.592-4.536 4.777 4.777 0 0 0-1.425-1.626 4.25 4.25 0 0 0-2.244-.552c-.142-.003-.398.04-.629.05a9.558 9.558 0 0 0-.446-.123c-.087-.191-.26-.75-.308-.712l-.65.511a12.83 12.83 0 0 0-.83-.113l-.303-.855a5.833 5.833 0 0 0-.43.799 13.198 13.198 0 0 0-.83-.014l-.553-.525a.776.776 0 0 1-.61.59c-.255.026-.509.06-.762.1h-.061c-1.363-.034-2.829-.094-3.968.645a3.878 3.878 0 0 0-1.263 1.416c-.14.094-.28.187-.415.286a4.51 4.51 0 0 0-1.169 1.145c-.23.387-.403.803-.517 1.238a11.735 11.735 0 0 0-.595 4.054 5.977 5.977 0 0 0 1.497 3.755c.584.62 1.327 1.078 1.912 1.698 1.205 1.275 1.43 3.055 2.461 4.404 1.09 1.428 3.08 2.368 4.827 2.637a8.137 8.137 0 0 0 6.006-1.48 3.69 3.69 0 0 0 1.022-1.06c.607-1.036.35-2.338.575-3.514.422-2.205 2.551-4.055 2.183-6.268z" fill="#3F3D56" fill-rule="nonzero"/>
        <path d="M243.307 169.605s3.416 12.31-.91 14.133c-4.327 1.824-2.96-13.678-2.96-13.678l3.87-.455z" fill="#A0616A" fill-rule="nonzero"/>
        <path d="M247.026 141.881s-1.475 21.621-1.248 26.83c-1.214-.343-1.97-.745-1.897-1.172.225-1.332 2.697-26.648 2.697-29.09 0-2.444.9-14.213.9-14.213l-6.461-12.559c.103-.621.166-.988.166-.988l3.26 6.773 4.608 1.222-2.025 23.197z" fill="#000" fill-rule="nonzero" opacity=".1"/>
        <path d="m242.081 109.797-1.52 1.33s-1.952 11.743-1.735 14.623c.217 2.881-4.558 46.532-.868 46.532s7.813-.664 7.162-2.215c-.651-1.551 1.084-27.818 1.084-27.818l1.954-23.146-6.077-9.306z" fill="#575A89" fill-rule="nonzero"/>
        <path d="M283.864 111.962c-1.593 3.979-5.618 11.02-6.248 12.117l.03-4.85 4.884-9.548 1.046-.777s.112 1.175.288 3.058zM283.315 168.151c-.528.102-1.824.312-3.513.56-.877-6.302-3.22-24.426-3.072-26.133.073-.842.135-4.999.183-9.572.124 4.493.472 9.614 1.367 12.445 1.83 5.786 7.324 22.255 5.035 22.7z" fill="#000" fill-rule="nonzero" opacity=".1"/>
        <path d="m280.212 108.011 3.27.894s2.18 24.795 2.398 29.04c.218 4.244 2.835 30.38 2.399 31.497-.436 1.117-7.195 2.68-7.413 1.564-.218-1.117-3.388-26.32-3.22-28.35.167-2.03-.923-23.029-.923-23.029l3.489-11.616z" fill="#575A89" fill-rule="nonzero"/>
        <path stroke="#3F3D56" d="m69.627 122.294 40.304-33.616 40.658-23 40.304-22.292 40.305-38.923"/>
        <circle fill="#F2F2F2" fill-rule="nonzero" cx="68.288" cy="123.633" r="4.017"/>
        <circle fill="#F2F2F2" fill-rule="nonzero" cx="109.35" cy="90.605" r="4.017"/>
        <circle fill="#F2F2F2" fill-rule="nonzero" cx="149.52" cy="67.395" r="4.017"/>
        <circle fill="#F2F2F2" fill-rule="nonzero" cx="190.582" cy="45.079" r="4.017"/>
        <circle fill="#F2F2F2" fill-rule="nonzero" cx="230.751" cy="5.802" r="4.017"/>
        <circle stroke="#3F3D56" cx="70.073" cy="121.847" r="4.017"/>
        <circle stroke="#3F3D56" cx="110.243" cy="88.819" r="4.017"/>
        <circle stroke="#3F3D56" cx="150.412" cy="65.61" r="4.017"/>
        <circle stroke="#3F3D56" cx="191.475" cy="43.294" r="4.017"/>
        <circle stroke="#3F3D56" cx="231.644" cy="4.017" r="4.017"/>
    </g>
</svg>
