<svg width="233" height="183" viewBox="0 0 233 183" xmlns="http://www.w3.org/2000/svg">
    <g fill-rule="nonzero" fill="none">
        <path d="M184.763 114.194c-.02 3.285-.06 6.59-.08 9.875 0 .811-.021 1.622-.021 2.413 0 .547-.122 1.237.101 1.764.345.892 1.501.649 1.928 1.399.043-.14.077-.282.101-.426-1.48.732-1.866 2.372-1.988 3.893-.101 1.46-.162 3.812 1.745 4.096a5.087 5.087 0 0 0-.081-.548c-2.88 1.317-1.725 6.469-.508 8.537a14.68 14.68 0 0 0 3.57 3.852c.772.628 1.542 1.219 2.334 1.825.466.365.933.71 1.38 1.073.243.182 1.277.75 1.316 1.095.07-.099.144-.193.223-.284h.04c.044.14.078.282.102.426.02-.02.02-.04.04-.061.163-.345-.344-.65-.527-.305-.02.02-.02.04-.04.061a.325.325 0 0 0 .101.426.366.366 0 0 0 .426.061c.122-.04.244-.162.223-.284-.08-.628-.71-.912-1.197-1.277-.71-.568-1.44-1.115-2.15-1.683a33.275 33.275 0 0 1-3.854-3.285 8.632 8.632 0 0 1-2.454-4.827c-.223-1.541-.426-4.015 1.278-4.806.223-.101.182-.527-.081-.548-1.623-.243-1.4-2.555-1.278-3.791.121-1.217.466-2.494 1.663-3.082a.32.32 0 0 0 .102-.426c-.426-.731-1.461-.588-1.846-1.237-.305-.487-.102-1.622-.081-2.21 0-.811.02-1.622.02-2.413.02-3.082.04-6.184.081-9.265a.295.295 0 1 0-.588-.04v.002z" fill="#E8E8E8"/>
        <path d="M185.089 114.356c2.84.142 4.83 2.312 6.532 4.34.81.975 1.663 1.885 2.495 2.798.852.912 1.968 2.758.426 3.65a.308.308 0 0 0 .162.567c2.353.061 3.388 2.92 4.118 4.725a43.709 43.709 0 0 1 2.07 6.731 42.454 42.454 0 0 1 .649 14.316c-.04.385.568.385.609 0 .639-5.31.295-10.692-1.014-15.877a37.489 37.489 0 0 0-2.516-7.157c-.77-1.622-1.968-3.305-3.915-3.346.06.183.101.386.162.568 2.962-1.703-.71-4.948-1.907-6.347-2.13-2.473-4.28-5.412-7.85-5.596a.315.315 0 0 0-.02.629h-.001z" fill="#E8E8E8"/>
        <path d="M195.272 121.656a66.457 66.457 0 0 1 5.964-14.437c-.14.044-.282.077-.426.102.548.324 1.116.649 1.664.975a.316.316 0 0 0 .426-.426c-1.46-2.92 2.92-4.785 4.402-6.529-.12.024-.243.037-.366.04.284.163.589.325.873.488a.324.324 0 0 0 .425-.101c1.623-2.757 4.484-4.299 7.243-5.718-.142-.122-.305-.223-.447-.345-.872 2.859.508 5.982.771 8.84.145 1.551.159 3.111.04 4.664-.06.77 0 1.927-.304 2.616 0 .507-.284.79-.872.892l-.527.06-1.238.123c-.162.02-.324.121-.304.304a.926.926 0 0 0 .446.79c.385.325.69.366.872.934.084.31.118.632.102.952a31.29 31.29 0 0 1-.548 4.948 36.472 36.472 0 0 1-1.177 4.663c-.426 1.278-.994 3.184-2.576 3.387a.314.314 0 0 0-.264.466c1.177 1.804-.568 3.994-1.42 5.556a70.08 70.08 0 0 0-2.576 5.09 75.595 75.595 0 0 0-3.935 10.604.305.305 0 0 0 .588.162 73.728 73.728 0 0 1 4.665-12.125c.893-1.845 1.968-3.588 2.901-5.412.67-1.317 1.197-2.859.325-4.197-.081.162-.183.304-.264.466 1.197-.142 1.968-.994 2.495-2.028a22.495 22.495 0 0 0 1.603-5.13c.432-1.907.703-3.846.81-5.799.104-.667.041-1.35-.182-1.987-.162-.405-1.196-1.034-1.217-1.316l-.304.304c1.136-.122 2.76.163 3.144-1.135.508-1.623.488-3.63.467-5.292a28.879 28.879 0 0 0-.507-5.293c-.366-1.967-1.015-3.933-.406-5.92a.308.308 0 0 0-.447-.345c-2.86 1.48-5.801 3.082-7.463 5.94.14-.043.281-.077.425-.1-.283-.163-.588-.325-.872-.488a.306.306 0 0 0-.365.04c-1.704 2.007-6.187 3.913-4.504 7.259l.426-.426c-.548-.324-1.115-.649-1.663-.975a.32.32 0 0 0-.426.101 69.262 69.262 0 0 0-6.025 14.58.29.29 0 1 0 .548.182v-.004zM180.93 100.934c-3.408.243-5.214-3.751-4.646-6.632.548-2.818 3.306-4.805 6.126-4.724 3.712.081 5.62 3.71 4.95 7.097-.588 3.023-3.631 5.251-6.674 4.055-.365-.142-.527.446-.162.588a5.544 5.544 0 0 0 6.613-2.372 7.387 7.387 0 0 0-.386-7.908c-1.663-2.23-4.848-2.535-7.262-1.46a6.483 6.483 0 0 0-3.935 6.063c.06 2.88 2.19 6.124 5.355 5.9.406-.02.426-.628.02-.608zM212.068 56.386a41.957 41.957 0 0 1-4.077 6.204c-.244.305.182.732.426.426a42.132 42.132 0 0 0 4.179-6.326c.182-.345-.345-.649-.528-.304z" fill="#E8E8E8"/>
        <path d="M212.048 56.873a202.825 202.825 0 0 0 2.293 5.758c.142.366.732.203.588-.162a203.703 203.703 0 0 1-2.292-5.758c-.142-.366-.732-.203-.589.162z" fill="#E8E8E8"/>
        <path d="M211.906 57.157a101.347 101.347 0 0 1-2.92 22.365.305.305 0 0 0 .587.162 101.616 101.616 0 0 0 2.942-22.527c.02-.405-.588-.405-.609 0zM215.415 69.546a43.102 43.102 0 0 1-.385 13.018c-.061.386.507.548.588.163.794-4.348.93-8.791.406-13.18-.061-.385-.67-.385-.609 0v-.001z" fill="#E8E8E8"/>
        <path d="M213.083 77.98c.71 1.623 1.947 3.103 2.028 4.925a.308.308 0 0 0 .568.163c.71-1.237 1.44-2.474 2.15-3.711a.304.304 0 1 0-.527-.304c-.71 1.237-1.44 2.473-2.15 3.71.182.061.385.102.568.163-.081-1.967-1.36-3.488-2.11-5.232-.163-.385-.69-.08-.528.284v.003zM74.672 180.64c12.233-1.135 24.485-2.616 36.758-3.12 12.375-.508 24.81-.183 37.184.141 7.1.183 14.2.528 21.26 1.197.385.04.385-.568 0-.609-12.415-1.176-24.87-1.316-37.326-1.46-6.248-.08-12.496-.141-18.724.062-6.065.182-12.11.689-18.156 1.237l-20.996 1.946c-.385.02-.385.629 0 .609v-.003zM138.329 171.678c5.092.953 10.123.912 15.255.446 5.274-.487 10.528-.79 15.823-1.034 10.63-.466 21.26-.892 31.869-1.338 6.065-.264 12.13-.507 18.195-.77.386-.021.386-.63 0-.61l-31.93 1.34c-10.467.445-20.995.668-31.443 1.56-2.84.243-5.68.567-8.52.608a45.64 45.64 0 0 1-9.088-.81c-.385-.041-.547.547-.162.608h.001zM.304 167.46c9.454.293 18.907.248 28.36-.134.385-.023.385-.697 0-.675a397.63 397.63 0 0 1-28.36.135c-.405-.023-.405.652 0 .675zM10.63 175.53c3.449-.73 7.1-.263 10.59-.1 3.509.182 6.998.344 10.507.526 7.141.365 14.261.732 21.402 1.073.386.02.386-.588 0-.609l-21.805-1.094-10.894-.548c-3.306-.162-6.674-.547-9.94.163-.385.08-.223.669.142.588l-.002.002zM65.32 160.08c12.538.851 24.872-2.393 37.388-2.353a.305.305 0 0 0 0-.608c-12.517-.04-24.85 3.183-37.387 2.352-.385-.04-.385.588 0 .609zM55.928 97.06c.092-.347.214-.687.366-1.013.101-.142.182-.264.284-.406.426-.04.872-.101 1.298-.142.121.081.223.325.304.447.286.43.66.795 1.096 1.072a3.38 3.38 0 0 0 2.92.284c2.496-.912 3.43-4.218 6.472-3.893a3.624 3.624 0 0 1 2.17.975c.447.426.792.953 1.258 1.359a2.813 2.813 0 0 0 2.86.425c1.22-.425 2.15-1.338 3.063-2.21 1.238-1.156 3.043-2.555 4.686-1.316 1.074.79 1.704 2.007 3.043 2.433a3.999 3.999 0 0 0 3.652-.629c.304-.223 0-.77-.305-.527a3.383 3.383 0 0 1-4.564-.365c-.852-.83-1.582-1.866-2.84-2.008-2.961-.365-4.503 3.245-7.019 4.076-1.906.629-2.536-1.072-3.793-2.007a4.35 4.35 0 0 0-3.268-.791c-1.22.182-2.15.912-3.002 1.744-.994.993-2.05 2.352-3.59 2.352a2.895 2.895 0 0 1-2.394-1.38c-.325-.445-.589-.81-1.177-.871-1.278-.121-1.826 1.219-2.13 2.21a.318.318 0 0 0 .609.183l.001-.001zM87.208 86.578c.732-2.129 3.287-.324 4.26.466.852.69 1.846 1.399 3.002 1.358 1.907-.08 2.921-2.027 4.483-2.838 2.171-1.116 3.49 1.784 5.6 1.5.932-.122 1.42-.872 2.007-1.52.63-.69 1.279-.69 2.171-.488.83.202 1.684.405 2.516.608a.305.305 0 0 0 .162-.588c-.83-.203-1.684-.406-2.515-.609a3.27 3.27 0 0 0-1.704-.142c-1.116.345-1.44 1.825-2.556 2.089-1.197.283-2.374-1.055-3.408-1.48a2.837 2.837 0 0 0-2.557.08c-.892.466-1.56 1.257-2.353 1.886a3.259 3.259 0 0 1-1.805.851c-1.054.061-1.927-.669-2.698-1.277-.933-.731-1.927-1.602-3.205-1.5a2.126 2.126 0 0 0-1.968 1.419c-.142.385.447.548.568.182v.003zM178.938 27.41a291.195 291.195 0 0 0-.362 11.416.3.3 0 0 0 .1.205.328.328 0 0 0 .439 0 .299.299 0 0 0 .1-.205c.042-3.812.17-7.603.36-11.415.022-.385-.616-.385-.637 0z" fill="#E8E8E8"/>
        <path d="M179.329 27.696c4.686-.649 9.453-1.277 14.119-.182a.305.305 0 0 0 .162-.588c-4.767-1.136-9.656-.488-14.443.182-.386.04-.223.629.162.588z" fill="#E8E8E8"/>
        <path d="M193.06 27.715a351.98 351.98 0 0 1-.446 23.136c-.02.385.588.385.609 0a347.53 347.53 0 0 0 .446-23.136.305.305 0 0 0-.609 0zM179.084 48.783c.101.975.142 1.987.324 2.94a1.572 1.572 0 0 0 .67 1.073c1.277.829 3.347.344 4.746.263l5.985-.365c.893-.06 2.313-.304 1.765-1.54-.163-.366-.69-.041-.527.304.101.223-1.035.588-1.238.628-.33.04-.662.061-.994.061-.589.04-1.197.081-1.785.102-1.197.08-2.394.141-3.59.222-1.096.061-2.313.284-3.408.04-1.38-.323-1.197-2.554-1.34-3.71-.04-.405-.649-.405-.608-.02v.002zM175.392 48.034a296.828 296.828 0 0 1-5.497 7.745.276.276 0 0 0 0 .305 1.227 1.227 0 0 0 1.46.527c.872-.264 1.298-1.257 1.744-1.947a28.978 28.978 0 0 1 2.455-3.244c.386-.426.771-.852 1.177-1.257.466-.467 1.257-1.46 1.927-1.56.385-.062.223-.65-.163-.589-.608.102-1.014.588-1.46.994a27.345 27.345 0 0 0-1.704 1.724 30.19 30.19 0 0 0-2.878 3.75 8.47 8.47 0 0 1-.751 1.136c-.325.466-.67.507-1.073.122.121-.163.244-.324.345-.488.547-.75 1.095-1.5 1.623-2.25 1.115-1.56 2.21-3.121 3.286-4.705.264-.284-.264-.588-.488-.264h-.003z" fill="#E8E8E8"/>
        <path d="M178.556 48.782a6.363 6.363 0 0 0 5.924-3.771c.893-2.089.406-4.806-1.481-6.185-2.17-1.56-4.95-.385-6.635 1.317a6.874 6.874 0 0 0-2.028 3.71 4.268 4.268 0 0 0 .081 1.683c.08.32.202.627.365.913.041.08.976 1.399.568 1.379-.385-.04-.385.567 0 .608a.761.761 0 0 0 .771-1.073c-.142-.466-.588-.79-.83-1.219a3.549 3.549 0 0 1-.344-2.19c.345-2.595 3.103-5.314 5.782-5.271 2.637.02 4.016 2.96 3.468 5.272a5.683 5.683 0 0 1-5.64 4.197.315.315 0 0 0 0 .628v.002zM181.437 29.844l-.02-.02v.426c.263-.305 2.089-.284 2.576-.345.77-.081 1.56-.142 2.332-.182a88.68 88.68 0 0 1 2.354-.102c.345 0 2.15.163 2.271-.162-.142.365.447.527.589.162.02-.04.02-.06.04-.101a.292.292 0 0 0-.081-.305c-.447-.446-1.258-.243-1.846-.243-1.116 0-2.211.04-3.327.122-1.035.06-2.07.162-3.122.263-.528.061-1.846-.02-2.232.426a.312.312 0 0 0 0 .426l.021.02c.304.324.732-.121.446-.385h-.001zM181.153 32.957c2.02.28 4.057.332 6.085.153.385-.026.385-.79 0-.766a27.035 27.035 0 0 1-5.924-.127c-.385-.051-.547.689-.162.74zM179.773 35.096c-.061.06-.122.142-.183.203a.312.312 0 0 0 .223.527c3.53.06 7.06-.102 10.57-.488.384-.04.384-.649 0-.608-3.51.386-7.04.548-10.57.488.081.182.142.345.223.527.061-.061.122-.142.183-.203.244-.304-.183-.731-.447-.446zM184.135 38.51a20.69 20.69 0 0 0 5.518-.27c.385-.067.223-.718-.163-.65-1.77.316-3.567.4-5.355.246-.406-.023-.406.65 0 .673z" fill="#E8E8E8"/>
        <path d="M179.185 46.633c-1.643.08-3.043-1.359-2.516-3.023a4.727 4.727 0 0 1 3.307-2.94 2.32 2.32 0 0 1 1.907.527c.75.69.548 1.703.203 2.535-.589 1.46-1.664 2.78-3.307 2.96-.385.04-.385.65 0 .609 2.11-.223 3.61-2.028 4.118-4.015.488-1.866-.892-3.406-2.82-3.244-1.785.162-3.752 1.967-4.077 3.73a2.979 2.979 0 0 0 3.185 3.468c.385-.02.385-.629 0-.609v.002z" fill="#E8E8E8"/>
        <path d="M179.53 40.935a75.435 75.435 0 0 0-2.231 5.293c-.142.365.446.527.588.162a76.552 76.552 0 0 1 2.17-5.15c.163-.365-.344-.669-.527-.304zM180.463 42.679c-.527 1.095-1.034 2.19-1.56 3.285-.163.345.365.669.527.304.527-1.095 1.034-2.19 1.56-3.285.163-.344-.344-.669-.527-.304zM29.658 9.568v5.555c.007.078.063.151.156.205a.704.704 0 0 0 .344.083c.128 0 .251-.03.344-.083.093-.054.149-.127.156-.205V9.568c-.007-.078-.063-.151-.156-.205a.704.704 0 0 0-.344-.083.704.704 0 0 0-.344.083c-.093.054-.149.127-.156.205z" fill="#E8E8E8"/>
        <path d="M30.044 15.779h5.152c.078-.008.15-.063.204-.156a.703.703 0 0 0 .084-.344.703.703 0 0 0-.084-.344c-.053-.093-.126-.15-.204-.156h-5.152c-.078.007-.151.063-.205.156a.703.703 0 0 0-.083.344c0 .128.03.25.083.344.054.093.127.148.205.156z" fill="#E8E8E8"/>
        <path d="M35.953 14.738V8.696c-.009-.077-.065-.15-.158-.202a.706.706 0 0 0-.342-.082c-.127 0-.25.03-.342.082-.093.053-.15.125-.158.202v6.042c.009.077.065.15.158.202a.706.706 0 0 0 .342.082c.127 0 .25-.03.342-.082.093-.053.15-.125.158-.202z" fill="#E8E8E8"/>
        <path d="M35.338 8.31h-5.274c-.078.007-.15.063-.204.156a.703.703 0 0 0-.084.344c0 .128.03.251.084.344.053.093.126.149.204.156h5.274c.078-.007.151-.063.205-.156a.703.703 0 0 0 .083-.344.703.703 0 0 0-.083-.344c-.054-.093-.127-.149-.205-.156zM32.234 15.711v6.185c.008.077.063.15.156.204a.704.704 0 0 0 .344.083c.128 0 .251-.03.344-.083.093-.054.15-.127.156-.204V15.71c-.007-.077-.063-.15-.156-.204a.704.704 0 0 0-.344-.083.704.704 0 0 0-.344.083c-.093.054-.148.127-.156.204zM25.092 21.814c2.252-2.15 4.598-4.21 7.04-6.184.304-.244-.123-.669-.426-.426a113.08 113.08 0 0 0-7.04 6.185c-.284.263.142.689.426.425z" fill="#E8E8E8"/>
        <path d="m32.883 15.833 7.303 5.536c.304.243.609-.284.304-.528l-7.302-5.535c-.305-.244-.61.284-.305.527zM22.74 22.936h4.038c.077-.007.15-.063.204-.156a.703.703 0 0 0 .083-.344.703.703 0 0 0-.083-.344c-.054-.093-.127-.149-.204-.156H22.74c-.078.007-.151.063-.205.156a.703.703 0 0 0-.083.344c0 .128.03.251.083.344.054.093.127.149.205.156z" fill="#E8E8E8"/>
        <path d="M26.412 22.667v4.583c.007.078.063.15.156.204a.704.704 0 0 0 .344.083c.128 0 .251-.03.344-.083.093-.053.149-.126.156-.204v-4.583c0-.04-.013-.08-.038-.117a.348.348 0 0 0-.108-.099.59.59 0 0 0-.162-.066.788.788 0 0 0-.383 0 .59.59 0 0 0-.162.066.348.348 0 0 0-.109.1.206.206 0 0 0-.038.116zM22.294 22.382v5.352c.007.078.063.15.156.204a.704.704 0 0 0 .344.084c.128 0 .251-.03.344-.084.093-.053.149-.126.156-.204v-5.352c0-.08-.053-.158-.146-.215a.694.694 0 0 0-.354-.089.694.694 0 0 0-.354.09c-.093.056-.146.134-.146.214z" fill="#E8E8E8"/>
        <path d="M22.538 28.492h3.753c.077-.007.15-.063.204-.156a.703.703 0 0 0 .083-.344.703.703 0 0 0-.083-.344c-.053-.093-.127-.149-.204-.156h-3.753c-.078.007-.151.063-.204.156a.703.703 0 0 0-.084.344c0 .128.03.25.084.344.053.093.126.149.204.156zM30.368 22.524v5.272c.007.078.063.15.156.204a.704.704 0 0 0 .344.084c.128 0 .25-.03.344-.084.093-.053.149-.126.156-.204v-5.272c0-.08-.053-.158-.147-.215a.694.694 0 0 0-.353-.09.694.694 0 0 0-.354.09c-.093.057-.146.134-.146.215z" fill="#E8E8E8"/>
        <path d="M30.672 28.35h3.692c.078-.007.151-.063.205-.156a.703.703 0 0 0 .083-.344.703.703 0 0 0-.083-.344c-.054-.093-.127-.149-.205-.156h-3.692c-.077.007-.15.063-.204.156a.703.703 0 0 0-.083.344c0 .128.03.25.083.344.053.093.127.149.204.156zM30.875 23.22h3.269c.077-.007.15-.063.204-.156a.703.703 0 0 0 .083-.344.703.703 0 0 0-.083-.344c-.053-.093-.127-.149-.204-.156h-3.269c-.077.007-.15.063-.204.156a.703.703 0 0 0-.083.344c0 .128.03.25.083.344.053.093.127.149.204.156z" fill="#E8E8E8"/>
        <path d="M33.918 22.443v5.008c.007.078.063.151.156.205a.704.704 0 0 0 .344.083c.128 0 .25-.03.344-.083.093-.054.149-.127.156-.205v-5.008c-.007-.077-.063-.15-.156-.204a.704.704 0 0 0-.344-.083.704.704 0 0 0-.344.083c-.093.053-.149.127-.156.204zM39.01 22.443a60.798 60.798 0 0 0-.142 3.954c.007.077.056.15.135.202.08.053.184.082.293.082.109 0 .213-.03.293-.082a.281.281 0 0 0 .135-.202c0-1.316.057-2.636.143-3.954.029-.385-.828-.385-.856 0z" fill="#E8E8E8"/>
        <path d="M39.233 22.586c1.339-.142 2.677-.305 4.016-.447.386-.04.386-.649 0-.608-1.339.142-2.677.304-4.016.446-.386.04-.406.65 0 .609z" fill="#E8E8E8"/>
        <path d="M43.065 21.957a11.605 11.605 0 0 0 .174 4.034c.075.386.795.223.72-.162a11.295 11.295 0 0 1-.15-3.873c.05-.385-.694-.385-.744 0z" fill="#E8E8E8"/>
        <path d="m39.437 26.924 4.016-.608c.386-.061.223-.65-.162-.588l-4.017.608c-.385.061-.223.629.163.588zM32.153 28.14a30.46 30.46 0 0 0-1.988 3.549c-.162.345.365.669.527.304a31.829 31.829 0 0 1 1.988-3.548c.203-.324-.324-.628-.527-.304z" fill="#E8E8E8"/>
        <path d="M32.336 28.384c.744 1 1.396 2.066 1.947 3.184.183.344.71.04.528-.305a23.028 23.028 0 0 0-1.948-3.183c-.223-.324-.75-.02-.527.304zM29.07 32.477c.426 0 .852 0 1.298.021.197.003.393.017.588.04.366.02.325-.101.386.223.074.852.047 1.71-.081 2.555-.04.385.567.385.608 0 .04-.608.081-1.237.081-1.845a2.827 2.827 0 0 0-.08-1.237c-.183-.304-.61-.264-.913-.284-.63-.04-1.258-.06-1.887-.06-.385-.021-.385.587 0 .587z" fill="#E8E8E8"/>
        <path d="M28.664 32.46c.06.71.122 1.399.182 2.109.04.567-.04 1.399.183 1.946a.452.452 0 0 0 .406.345c.527.101 1.317-.162 1.846-.244.385-.06.223-.628-.163-.588-.416.119-.846.18-1.278.183-.385-.102-.304-.629-.324-1.035l-.244-2.717c-.04-.385-.65-.405-.609 0h.001zM33.277 32.379c-.06.593-.078 1.189-.055 1.784.091.504.147 1.012.166 1.52.138-.02.276-.06.413-.08-.027 0-.055-.021-.11-.021.095.098.196.193.303.284v-.081a3.88 3.88 0 0 1-.303.284c.015.001.03 0 .045-.004a.112.112 0 0 0 .038-.017c.524-.08.303-.669-.22-.588a.136.136 0 0 0-.045.003.112.112 0 0 0-.038.018.419.419 0 0 0-.221.101.237.237 0 0 0-.082.182v.081a.26.26 0 0 0 .088.179c.055.05.13.088.215.105.716.102.716-.385.689-.77a14.015 14.015 0 0 1-.055-3.042c.028-.345-.8-.324-.827.061z" fill="#E8E8E8"/>
        <path d="M33.614 32.52c0-.141 1.298-.181 1.48-.161.508.08.407.12.489.487.027.277.013.556-.04.829-.021.507-.021.994 0 1.5 0 .284.202 1.136.06 1.339.14-.044.282-.077.426-.102-.02 0-.04-.02-.06-.02.04.121.1.223.141.345 0-.02.02-.04.02-.061a.305.305 0 0 0-.588-.163c0 .02-.02.04-.02.061a.3.3 0 0 0 .142.345c.02 0 .04.02.06.02a.342.342 0 0 0 .427-.1c.142-.204.08-.407.06-.65-.02-.548-.06-1.115-.06-1.663 0-.547.02-1.115.04-1.662a1.181 1.181 0 0 0-.08-.791c-.346-.466-1.441-.324-1.887-.264-.508.06-1.177.122-1.22.731 0 .365.609.365.609-.02z" fill="#E8E8E8"/>
        <path d="M33.675 36.785a4.92 4.92 0 0 1 1.805.2.257.257 0 0 0 .226-.043.376.376 0 0 0 .138-.223.454.454 0 0 0-.026-.28.33.33 0 0 0-.176-.179 4.82 4.82 0 0 0-1.968-.25c-.405.05-.405.8 0 .775zM41.302 27.046a37.93 37.93 0 0 0-1.298 3.305c-.122.365.466.527.588.162.366-1.072.771-2.128 1.238-3.163.162-.365-.366-.669-.528-.304zM38.199 31.85c1.014-.29 2.068-.42 3.122-.384.385.02.385-.588 0-.609a10.595 10.595 0 0 0-3.286.406.305.305 0 0 0 .162.588h.002z" fill="#E8E8E8"/>
        <path d="M38.178 31.568a3.832 3.832 0 0 0 .02 1.662c.055.682.068 1.365.041 2.048-.04.893.182.994 1.073.913.609-.061 1.44.1 1.664-.568.14-.728.21-1.469.206-2.21.061-.732.142-1.48.203-2.21.04-.386-.567-.386-.608 0l-.244 2.574c-.014.374-.048.746-.102 1.116-.122.567-.182.608-.77.669l-.528.06c-.345.122-.446.021-.304-.324a5.909 5.909 0 0 1 .02-1.034c-.02-.77-.324-1.804-.101-2.535.142-.386-.447-.548-.568-.163l-.002.002zM42.154 27.614c.463.718.883 1.463 1.258 2.23.162.345.69.04.527-.304a20.204 20.204 0 0 0-1.257-2.23c-.223-.345-.751-.041-.528.304zM42.844 31.128h3.043c.078-.007.15-.063.204-.156a.703.703 0 0 0 .084-.344.703.703 0 0 0-.084-.344c-.053-.093-.126-.149-.204-.156h-.182c-.078.007-.151.063-.205.156a.703.703 0 0 0-.083.344c0 .128.03.25.083.344.054.093.127.149.205.156h.182c.078-.007.15-.063.204-.156a.703.703 0 0 0 .084-.344.703.703 0 0 0-.084-.344c-.053-.093-.126-.149-.204-.156h-3.043c-.08 0-.158.052-.215.146a.694.694 0 0 0-.09.354c0 .132.033.26.09.353.057.094.134.147.215.147z" fill="#E8E8E8"/>
        <path d="M42.54 30.716c.08.77.142 1.54.162 2.311.02.548-.162 1.48.081 1.987.142.305.324.345.65.345a22.566 22.566 0 0 0 2.312-.304.325.325 0 0 0 .223-.284l-.061-4.116a.305.305 0 0 0-.609 0l.061 4.116a3.47 3.47 0 0 1 .223-.284c-.488.061-.975.122-1.46.203-.163.02-.63.163-.771.04-.102-.08 0-.709 0-.828a40.307 40.307 0 0 0-.183-3.143c-.06-.426-.669-.426-.628-.04v-.003zM20.02 32.38a34.86 34.86 0 0 1 3.287-2.717c.305-.223 0-.75-.304-.528a34.91 34.91 0 0 0-3.408 2.819c-.284.264.142.69.426.425z" fill="#E8E8E8"/>
        <path d="M23.126 29.398c.6.857 1.11 1.775 1.522 2.737.162.365.69.04.527-.304a16.307 16.307 0 0 0-1.521-2.737c-.223-.325-.751-.02-.528.304zM17.325 33.494c.547-.04 1.073-.08 1.623-.122.241-.04.486-.06.731-.06.284-.102.366-.082.244.08a.532.532 0 0 0-.101.385 17.215 17.215 0 0 0-.305 3.062c.183-.08.345-.142.528-.223a.28.28 0 0 1-.061-.08c-.264-.285-.69.141-.426.425a.28.28 0 0 1 .06.08.314.314 0 0 0 .528-.222 22.03 22.03 0 0 1 .223-2.595c.061-.366.324-.976.102-1.339-.183-.284-.488-.223-.771-.203l-2.354.183c-.405.06-.405.669-.02.628l-.001.001z" fill="#E8E8E8"/>
        <path d="M17.73 32.906h-.082a.347.347 0 0 0-.263.141c-.325.548-.305 1.5-.406 2.13l-.426 2.676c-.02.162.04.344.203.365a4.745 4.745 0 0 0 2.759-.182c.365-.142.203-.732-.163-.588a4.16 4.16 0 0 1-2.434.182c.061.121.142.244.203.365.061-.406.77-4.48.568-4.501.426.06.426-.548.04-.588zM23.247 32.857l-.02.024h.426c-.02 0-.02-.024-.04-.024v.51c.154-.022.31-.03.465-.025.223-.024.467-.048.69-.048.427-.02.854-.004 1.278.048-.08-.218-.142-.413-.223-.631a.466.466 0 0 0-.101.097c-.385.048-.385.778 0 .729a.648.648 0 0 0 .302-.088.781.781 0 0 0 .246-.228.405.405 0 0 0 .08-.19.443.443 0 0 0-.019-.214.367.367 0 0 0-.114-.165.278.278 0 0 0-.17-.063 10.703 10.703 0 0 0-1.765-.024c-.284.024-.872-.049-1.073.267a.358.358 0 0 0-.068.116.411.411 0 0 0 .068.394c.02 0 .02.024.04.024.028.035.06.063.097.082a.252.252 0 0 0 .232 0 .299.299 0 0 0 .097-.082l.02-.024c.244-.316-.182-.827-.446-.486h-.002z" fill="#E8E8E8"/>
        <path d="M23.004 32.947c-.06.828-.122 1.662-.162 2.494-.02.466-.284 1.662 0 2.088a.533.533 0 0 0 .548.264c.272-.05.537-.132.79-.244.49-.132.995-.193 1.502-.182a.305.305 0 0 0 0-.608c-.45-.003-.9.044-1.34.141-.202.04-.587.264-.77.223-.142.102-.203.081-.162-.08a2.118 2.118 0 0 1 0-.508c.02-1.176.122-2.372.203-3.548a.305.305 0 1 0-.61-.04h.001z" fill="#E8E8E8"/>
        <path d="M25.665 33.007a25.731 25.731 0 0 0-.266 4.096c.005.078.046.151.113.205a.404.404 0 0 0 .25.083c.093 0 .182-.03.25-.083a.287.287 0 0 0 .113-.205 25.73 25.73 0 0 1 .266-4.096c.073-.385-.653-.385-.726 0zM187.664 118.067a129.84 129.84 0 0 1 9.981 33.051c.061.385.65.223.589-.162a130.989 130.989 0 0 0-10.042-33.193c-.162-.345-.69-.04-.527.304zM212.92 100.264c-5.923 9.044-11.076 18.573-14.727 28.772-.142.365.446.527.588.163 3.631-10.159 8.764-19.628 14.667-28.63.203-.325-.325-.63-.528-.305z" fill="#E8E8E8"/>
        <path d="M185.595 129.179a13.941 13.941 0 0 1 7.993 5.758c.222.324.75.02.527-.304a14.591 14.591 0 0 0-8.358-6.042.305.305 0 0 0-.162.588zM193.507 120.764a15.832 15.832 0 0 0-2.17 6.002c-.061.385.527.547.588.162a15.54 15.54 0 0 1 2.11-5.86c.203-.324-.325-.629-.527-.304zM199.816 109.368c.96 1.09 1.71 2.347 2.21 3.71.245.609.447 1.238.63 1.846.182.588.608 1.46.365 2.048-.142.365.446.527.588.162.244-.588 0-1.176-.182-1.744a28.467 28.467 0 0 0-.83-2.473 12.877 12.877 0 0 0-2.373-3.995c-.244-.283-.669.142-.405.447h-.003zM206.692 111.7a19.278 19.278 0 0 1 9.555-6.002.305.305 0 0 0-.163-.588 19.907 19.907 0 0 0-9.818 6.144c-.244.304.183.75.426.446zM199.532 127.982a19.661 19.661 0 0 1 6.248-3.608c1.034-.385 2.07-.69 3.122-.994.588-.162 1.156-.304 1.744-.466.284-.06 1.481-.548 1.704-.426a3.235 3.235 0 0 1-.101-.425c-.02.02-.02.04-.04.06a3.24 3.24 0 0 1 .425-.1c-.02 0-.04-.021-.06-.021-.346-.183-.65.344-.305.527.02 0 .04.02.06.02a.324.324 0 0 0 .427-.101c.02-.02.02-.04.04-.061a.325.325 0 0 0-.101-.426c-.284-.162-.589-.02-.893.04-.69.163-1.38.325-2.069.508a55.662 55.662 0 0 0-3.936 1.176 19.71 19.71 0 0 0-6.674 3.812c-.304.304.122.75.406.488l.003-.003zM189.186 153.003c4.605 1.115 9.291.284 13.896-.264 4.987-.51 9.998-.767 15.011-.77a.305.305 0 0 0 0-.609c-4.889.081-9.778.183-14.626.732-4.686.547-9.453 1.46-14.12.324a.306.306 0 0 0-.162.588zM203.71 151.28c8.196-.426 16.391-.858 24.587-1.297.385-.021.385-.629 0-.609-8.196.426-16.391.858-24.587 1.297-.385.021-.385.629 0 .609zM180.24 92.742c-2.008.385-4.463-1.541-4.402-3.67.081-2.414 3.104-3.225 5.031-3.245 2.13 0 3.631 1.642 3.122 3.791a4.26 4.26 0 0 1-1.541 2.292c-.426.345-2.15 1.602-2.638.994-.243-.304-.669.121-.425.426.649.81 1.987-.02 2.677-.406a5.433 5.433 0 0 0 2.414-2.758c.812-2.372-.628-4.745-3.122-4.925-2.373-.182-6.045.913-6.106 3.832-.04 2.555 2.759 4.705 5.171 4.259.366-.061.203-.65-.182-.589l.001-.001zM24.526 102.292a14.998 14.998 0 0 0-1.948 2.798c-.182.345.345.649.528.304a15.08 15.08 0 0 1 1.867-2.677c.244-.284-.182-.731-.446-.425h-.001z" fill="#E8E8E8"/>
        <path d="M24.506 102.535c.609.851 1.22 1.683 1.826 2.535.223.325.75.02.527-.304-.609-.852-1.22-1.683-1.826-2.535-.244-.325-.77-.02-.527.304zM24.465 103.731c.183 7.158.345 14.316.528 21.494a.305.305 0 0 0 .608 0c-.182-7.158-.344-14.316-.527-21.494-.02-.385-.629-.405-.609 0z" fill="#E8E8E8"/>
        <path d="M25.662 126.184h27.02c.079-.007.152-.063.205-.156a.703.703 0 0 0 .084-.344.703.703 0 0 0-.084-.344c-.053-.093-.126-.148-.204-.156H25.662c-.078.008-.151.063-.204.156a.703.703 0 0 0-.084.344c0 .128.03.251.084.344.053.093.126.15.204.156z" fill="#E8E8E8"/>
        <path d="M51.506 125.184c.629.244 1.237.487 1.866.731-.08-.223-.182-.446-.264-.669a3.511 3.511 0 0 1-1.257 1.298.46.46 0 0 0 .466.79 4.39 4.39 0 0 0 1.603-1.622.459.459 0 0 0-.264-.669c-.63-.243-1.238-.487-1.867-.731-.588-.223-.83.649-.284.872zM207.301 15.671c-.811-1.073.345-2.717 1.603-1.906a1.217 1.217 0 0 1 .426 1.703 1.374 1.374 0 0 1-1.684.466c-.345-.182-.65.345-.305.527a2.012 2.012 0 0 0 2.434-.567 1.79 1.79 0 0 0-.365-2.514 1.772 1.772 0 0 0-2.455.142 2.012 2.012 0 0 0-.142 2.473c.183.284.71-.02.488-.324zM224.179 92.782a1.51 1.51 0 0 1 1.602-1.602c.352.062.713.04 1.055-.06.69-.305.953-1.095 1.177-1.765.324-.975.568-1.44 1.785-1.135.325.08.527.243.872.121 1.014-.385.406-2.128 1.947-1.845.386.081.548-.507.163-.588a1.672 1.672 0 0 0-1.38.244c-.385.284-.426.629-.65.994-.02.385-.283.547-.77.487a2.42 2.42 0 0 0-.324-.162c-.224-.02-.345-.142-.589-.122a1.484 1.484 0 0 0-1.054.629 5.435 5.435 0 0 0-.71 1.601c-.223.568-.446.976-1.136 1.035-.305.02-.589-.081-.893-.04a2.103 2.103 0 0 0-1.724 2.21c.04.405.649.405.628 0v-.002zM31.727 124.636c2.86-5.738 3.306-12.207 4.99-18.31.426-1.56.853-3.386 2.029-4.562 1.724-1.724 3.915-.508 4.625 1.52.527 1.541.548 3.326.65 4.948.1 1.744.182 3.488.283 5.231.223 3.732.609 7.483 1.866 11.03.122.366.71.204.589-.162-1.317-3.73-1.684-7.684-1.887-11.618-.101-1.926-.182-3.873-.324-5.799-.122-1.54-.182-3.224-.913-4.623a3.462 3.462 0 0 0-2.941-1.987c-1.317 0-2.415.912-3.084 1.967-.872 1.399-1.278 3.163-1.683 4.745-.447 1.764-.812 3.548-1.177 5.333-.811 4.096-1.643 8.212-3.53 11.983-.203.345.325.649.508.304h-.001zM34.507 99.493c-.406-.588.425-1.379.912-.731.467.608-.406 1.216-.892.75-.284-.263-.71.163-.426.426a1.283 1.283 0 0 0 1.602.101 1.129 1.129 0 0 0 .203-1.642 1.143 1.143 0 0 0-1.663-.223 1.274 1.274 0 0 0-.244 1.623c.203.324.732.02.507-.305v.001zM38.99 96.797c-.325-.466.385-.892.69-.406.324.527-.589 1.115-.893.527-.183-.344-.69-.04-.528.305a1.047 1.047 0 0 0 1.481.385 1.135 1.135 0 0 0 .447-1.541 1.086 1.086 0 0 0-1.44-.406 1.045 1.045 0 0 0-.325 1.42c.264.344.791.04.568-.284zM37.225 92.336c-.163-.466.345-.953.75-.568.406.386-.06.933-.527.77-.365-.12-.527.467-.162.589a1.084 1.084 0 0 0 1.115-1.784 1.05 1.05 0 0 0-1.359-.122 1.116 1.116 0 0 0-.406 1.278c.142.365.732.223.589-.163zM44.974 97.75c-.061-.04.02.02.04.06v.062h.081a.594.594 0 0 1 .183.04 3.48 3.48 0 0 0-.223-.284v.488c.07-.099.144-.193.223-.284a.806.806 0 0 1-.488.04c-.365-.12-.527.467-.163.589.266.088.556.074.812-.04.122-.062.223-.143.223-.285v-.487a.286.286 0 0 0-.223-.284c-.325-.081-.71-.122-.913.203a.498.498 0 0 0 .162.75.325.325 0 0 0 .426-.101.37.37 0 0 0-.142-.466l.002-.001zM78.851 17.03c.102.04-.122 1.054-.02 1.297a1 1 0 0 0 .79.527c.43.04.857-.083 1.198-.345.364-.223 1.237-.993 1.5-.142.062.183-.141.629-.08.872.182.811.953.77 1.5.345.18-.168.343-.35.488-.548.203-.487.508-.588.893-.304a.946.946 0 0 0 .061.345c.203.304.305.507.71.487.385-.02.385-.628 0-.608.02 0-.426-.912-.67-1.014a.971.971 0 0 0-.872.142c-.173.113-.33.25-.466.406-.304.304-.284.75-.77.446-.467-.284-.082-.731-.407-1.136-.527-.669-1.42-.304-1.987.061-.325.203-1.137.933-1.34-.142-.02-.142.102-.365.102-.507a.598.598 0 0 0-.345-.649c-.324-.244-.629.284-.284.466zM57.632 64.456c.244 2.839.488 5.678.751 8.516a.305.305 0 0 0 .608 0c0-.06.02-.141.02-.202.041-.386-.567-.386-.608 0 0 .06-.02.141-.02.202h.608c-.244-2.838-.488-5.677-.75-8.516-.041-.385-.65-.406-.61 0h.001z" fill="#E8E8E8"/>
        <path d="M58.1 64.68c.852-.183 2.332-.447 2.982.263.588.629.446 1.866.527 2.717.142 1.703.284 3.406.426 5.09.04.385.65.385.609 0-.203-2.434-.223-4.989-.629-7.401-.304-1.886-2.658-1.541-4.077-1.257-.386.08-.223.669.162.588zM63.292 53.243c.65 6.487.873 13.01.67 19.527-.021.385.588.385.608 0a149.47 149.47 0 0 0-.67-19.527c-.04-.385-.648-.405-.608 0z" fill="#E8E8E8"/>
        <path d="M64.022 53.243c.883.051 1.76.187 2.617.406 1.034.365.872 2.23.975 3.183.183 1.846.305 3.69.426 5.536.223 3.832.304 7.665.385 11.497a.305.305 0 0 0 .609 0c-.102-4.42-.203-8.86-.508-13.281-.142-2.069-.244-4.157-.567-6.205-.284-1.744-2.374-1.52-3.774-1.744-.385-.02-.548.548-.162.609h-.001zM69.175 49.431c.69 7.704 1.386 15.403 2.09 23.095.04.385.649.385.608 0-.69-7.704-1.386-15.402-2.089-23.095-.02-.385-.629-.385-.609 0z" fill="#E8E8E8"/>
        <path d="M69.561 49.735c.975-.189 1.973-.236 2.962-.141.831.08 1.42.243 1.46 1.135.02.304.02.629.02.933.062 1.52.123 3.042.204 4.562.264 5.82.567 11.618.872 17.438.02.385.629.385.609 0-.325-6.286-.65-12.551-.934-18.837-.06-1.316-.121-2.615-.162-3.933-.02-.588-.02-1.176-.568-1.56a3.762 3.762 0 0 0-1.886-.386 10.404 10.404 0 0 0-2.739.203c-.385.08-.223.669.163.588v-.002zM53.27 47.484c-.669 1.317-1.316 2.636-1.987 3.954-.183.345.345.65.527.304.67-1.316 1.317-2.636 1.988-3.953.163-.345-.365-.67-.527-.305z" fill="#E8E8E8"/>
        <path d="M53.352 48.093a5.496 5.496 0 0 0 1.846 2.98c.304.244.731-.182.425-.425a4.996 4.996 0 0 1-1.683-2.697.302.302 0 0 0-.588.142z" fill="#E8E8E8"/>
        <path d="M52.926 48.377a92.213 92.213 0 0 0 3.448 26.299.305.305 0 0 0 .589-.163 91.705 91.705 0 0 1-3.429-26.135.305.305 0 0 0-.608 0v-.001z" fill="#E8E8E8"/>
        <path d="M57.105 75.202a162.46 162.46 0 0 1 14.282-.71c4.442-.02 9.25-.202 13.348 1.805.345.162.65-.345.304-.527-3.976-1.947-8.52-1.906-12.861-1.886-5.031 0-10.056.237-15.074.71-.385.04-.385.649 0 .608h.001z" fill="#E8E8E8"/>
        <path d="M82.24 74.209a26.256 26.256 0 0 1 3.121 2.21l.061-.487c-.83.628-1.643 1.257-2.475 1.885-.304.244 0 .77.305.527.83-.628 1.643-1.257 2.475-1.885a.319.319 0 0 0 .06-.488 25.386 25.386 0 0 0-3.245-2.292.305.305 0 0 0-.304.528l.001.002zM54.812 58.657l.913 1.095a.32.32 0 0 0 .488-.06c1.623-3.184 3.225-6.388 4.868-9.571.426-.811 1.014-.142 1.623.08.385.13.802.115 1.177-.04.976-.365 1.623-1.379 2.07-2.27.73-1.521 1.379-3.103 2.089-4.644.182-.426.385-.852.567-1.257.088-.333.232-.649.426-.933.63-.567 2.171.732 2.698 1.054.873.528 2.13 1.704 3.269 1.4.852-.224 1.257-1.156 1.5-1.927a29.879 29.879 0 0 1 4.991-9.47.306.306 0 0 0-.304-.506 9.628 9.628 0 0 0-2.88 1.54c-.285.223.08.629.365.488.79-.385 1.602-.79 2.393-1.176-.142-.061-.304-.121-.446-.182.244 1.219.488 2.433.71 3.65.08.384.67.222.588-.163-.244-1.22-.488-2.433-.71-3.65a.309.309 0 0 0-.446-.182c-.791.385-1.603.79-2.394 1.176l.366.488a8.35 8.35 0 0 1 2.616-1.4c-.101-.162-.203-.344-.304-.507a28.511 28.511 0 0 0-4.28 7.217 26.17 26.17 0 0 0-.751 2.109c-.182.567-.466 1.784-1.22 1.906-.852.142-1.947-.83-2.637-1.257-.69-.428-1.359-.893-2.07-1.278-.81-.425-1.316-.264-1.724.527-.77 1.521-1.4 3.143-2.11 4.705-.527 1.176-1.196 3.548-2.637 3.933-.975.264-1.866-1.196-2.738-.345-.507.488-.77 1.4-1.073 2.008-.467.912-.913 1.804-1.38 2.717-.913 1.804-1.846 3.608-2.759 5.412l.488-.06-.912-1.096c-.264-.264-.69.162-.426.466l-.004.003zM143.117 8.27c-1.988-1.095-2.84-3.873-1.583-5.84 1.279-2.007 4.382-2.372 6.187-.892 1.846 1.54 1.867 4.704.102 6.306-1.826 1.683-4.889 1.237-6.39-.628-.244-.305-.67.121-.426.425a5.23 5.23 0 0 0 5.943 1.46 4.79 4.79 0 0 0 2.759-5.07 4.49 4.49 0 0 0-4.017-3.995c-2.049-.244-4.24.77-5.01 2.758a4.906 4.906 0 0 0 2.15 5.96c.324.224.629-.303.284-.487v.003zM151.92 12c-.852-1.58 1.34-3.325 2.435-1.621.976 1.5-1.42 2.636-2.19 1.237-.183-.345-.71-.04-.528.304a1.964 1.964 0 0 0 2.515.75 1.737 1.737 0 0 0 .732-2.595 1.985 1.985 0 0 0-2.84-.67 2.298 2.298 0 0 0-.67 2.92c.223.325.75.021.548-.324h-.001zM141.25 165.763h47.875c.078-.007.15-.063.204-.156a.703.703 0 0 0 .084-.344.703.703 0 0 0-.084-.344c-.053-.093-.126-.149-.204-.156h-47.874c-.081 0-.159.053-.216.146a.694.694 0 0 0-.089.354c0 .133.032.26.09.354.056.093.134.146.215.146zM199.146 165.763h9.128c.078-.007.151-.063.205-.156a.703.703 0 0 0 .083-.344.703.703 0 0 0-.083-.344c-.054-.093-.127-.149-.205-.156h-9.128c-.078.007-.151.063-.205.156a.703.703 0 0 0-.083.344c0 .128.03.251.083.344.054.093.127.149.205.156zM95.262 174.969h31.849c.078-.007.15-.063.204-.156a.703.703 0 0 0 .084-.344.703.703 0 0 0-.084-.344c-.053-.093-.126-.149-.204-.156H95.262c-.078.007-.15.063-.204.156a.703.703 0 0 0-.084.344c0 .128.03.25.084.344.053.093.126.149.204.156zM126.705 172.536h27.589c.078-.007.15-.063.204-.156a.703.703 0 0 0 .084-.344.703.703 0 0 0-.084-.344c-.053-.093-.126-.149-.204-.156h-27.589c-.078.007-.15.063-.204.156a.703.703 0 0 0-.084.344c0 .128.03.251.084.344.053.093.126.149.204.156z" fill="#E8E8E8"/>
        <path d="M52.56 170.57h8.318a.44.44 0 0 0 .313-.153.526.526 0 0 0 .129-.348.526.526 0 0 0-.129-.348.44.44 0 0 0-.313-.152H52.56a.44.44 0 0 0-.313.152.526.526 0 0 0-.128.348c0 .13.046.255.128.348a.44.44 0 0 0 .313.152zM63.717 170.57h2.84a.44.44 0 0 0 .314-.153.526.526 0 0 0 .128-.348.526.526 0 0 0-.128-.348.44.44 0 0 0-.313-.152h-2.84a.44.44 0 0 0-.314.152.526.526 0 0 0-.128.348c0 .13.046.255.128.348a.44.44 0 0 0 .313.152z" fill="#161616"/>
        <g>
            <path d="M40.755 133.66c.385.06.912.547 1.317 2.858l3.59.244c.994-.829 1.988-1.662 2.982-2.514.142.811.325 2.008.488 3.468.365 3.386.142 4.197.365 6.082a19.168 19.168 0 0 0 2.74 7.746c1.663 2.615 2.758 2.697 4.056 5.251a14.384 14.384 0 0 1 1.44 5.13c.204-.02 2.781-.223 4.423 1.784.75.933 1.582 2.677.953 4.056-.608 1.338-2.008 1.135-4.544 3.345-.893.77-1.744 1.54-1.541 2.15.202.628 1.298.506 3.225 1.54 1.014.548 1.501.83 1.664 1.317.608 1.764-3.246 4.48-3.814 4.886-1.867 1.298-4.138 2.312-4.422 1.906-.426-.608 4.158-3.953 3.469-5.251-.508-.975-3.388.244-4.058-.829-.731-1.176 1.846-4.116 3.226-5.718 2.657-3.082 4.341-3.852 4.057-4.887-.304-1.095-2.617-1.825-3.814-1.072-1.014.628-.811 2.048-1.196 2.98-.732 1.784-4.22 3.245-16.23 1.906a5.392 5.392 0 0 1 3.693-2.858 5.337 5.337 0 0 1 1.44-7.158 68.05 68.05 0 0 1-2.394-5.251 70.08 70.08 0 0 1-1.317-3.589 5.218 5.218 0 0 1-3.469-1.073c-1.521-1.338-.912-2.98-2.495-4.176-1.481-1.136-3.246-.629-3.55-1.602a1.394 1.394 0 0 1 .447-1.298c.77-.731 2.15-.365 3.65.04a16.515 16.515 0 0 1 4.16 1.805 8.693 8.693 0 0 1-1.603-4.664c-.144-3.328 1.886-6.717 3.062-6.554z" fill="#8E7777"/>
            <path d="M40.044 148.218c-1.4.608-.872 4.724-.365 8.475a67.213 67.213 0 0 0 1.907 9.186c-2.84 2.19-2.698 2.818-2.617 2.98.264.548 2.15.223 2.739.122a6.036 6.036 0 0 0 2.028-.588c1.44-.953.69-3.852.244-8.475-.65-6.691.122-9.49-2.028-11.092-.285-.222-1.218-.912-1.908-.608z" fill="#8E7777"/>
            <path d="M26.17 156.612c.197-.084.387-.186.567-.304-.04-.02-.04.304-.04.385a4.11 4.11 0 0 0-.061.872.676.676 0 0 0 .79.568c.213-.028.41-.12.569-.264a3.6 3.6 0 0 1 .345-.284c.031.168.051.337.06.507a.756.756 0 0 0 .792.67c.385-.041.385-.65 0-.61-.203.021-.264-1.072-.609-1.195a.52.52 0 0 0-.426.04c-.304.142-.75.791-.893.223-.101-.425.325-1.034-.06-1.399-.366-.344-.976.061-1.318.244a.308.308 0 1 0 .284.548zM40.126 140.337a.76.76 0 0 1 .292-.183.706.706 0 0 1 .649.1.823.823 0 0 1 .235.263c.163.27.548.022.386-.247a1.33 1.33 0 0 0-.38-.418 1.185 1.185 0 0 0-.503-.205 1.142 1.142 0 0 0-.535.045 1.228 1.228 0 0 0-.469.287c-.202.224.122.582.325.358zM44.467 140.3a.92.92 0 0 1 .672-.352.896.896 0 0 1 .687.303c.223.25.548-.15.324-.4-.275-.311-.638-.48-1.012-.47-.374.008-.73.195-.996.52-.203.25.122.65.325.4z" fill="#FFF"/>
            <path d="M40.917 142.5c-.223.446-1.177 1.987-.142 2.11.426.04.829-.346 1.073-.63.322-.42.57-.893.732-1.398.142-.365-.447-.527-.589-.163a3.462 3.462 0 0 1-.953 1.5c-.101.082-.162.224-.122.041.026-.122.074-.24.142-.345.122-.263.244-.527.385-.79.163-.386-.365-.69-.527-.325z" fill="#EC615B"/>
            <path d="M41.462 142.825c.249-.13.486-.279.71-.447-.08.02-.162.02-.244.04.02 0 .04.021.061.021-.06-.04-.122-.101-.182-.142 0-.121-.02-.121-.102.021a1.773 1.773 0 0 0-.162.203 4.103 4.103 0 0 0-.264.365 12.3 12.3 0 0 0-.507.871c-.183.345.345.65.527.305.183-.325.365-.67.568-.976.162-.243.507-.507.527-.81a.39.39 0 0 0-.365-.426.445.445 0 0 0-.345.142 2.651 2.651 0 0 1-.568.344c-.304.102 0 .629.345.488h.001z" fill="#EC615B"/>
            <path d="M40.856 142.48a1.415 1.415 0 0 0 1.42-1.136c.04-.284-.385-.405-.446-.122a.946.946 0 0 1-.976.811c-.304-.02-.304.426 0 .446h.002z" fill="#FFF"/>
            <path d="M41.891 141.202a1.545 1.545 0 0 0 1.623 1.4c.284-.021.284-.488 0-.467a1.082 1.082 0 0 1-1.176-.933c-.02-.283-.467-.283-.447 0z" fill="#FFF"/>
        </g>
        <g>
            <path d="M165.168 102.981c-6.715 8.13-13.423 16.255-20.124 24.373l31.585 7.847a41.816 41.816 0 0 0-4.422-22.568 40.16 40.16 0 0 0-7.039-9.652z" fill="#575A89"/>
            <path d="M143.076 128.996c10.63 2.676 21.267 5.346 31.91 8.01a23.314 23.314 0 0 1-5.579 13.585c-8.763-7.199-17.54-14.397-26.33-21.595z" fill="#57B894"/>
        </g>
        <g>
            <path d="M176.873 128.834c0 20.012-15.83 36.234-35.359 36.234-19.527 0-35.358-16.222-35.358-36.234S121.986 92.6 141.514 92.6s35.359 16.222 35.359 36.234z" stroke="#3F3D56" stroke-width="3"/>
            <path d="M141.962 128.063a.235.235 0 0 1 .325.081c.02-.08.02-.162.04-.244-.02.04-.08.02-.101 0a.293.293 0 0 0-.366.203.307.307 0 0 0 .203.365.66.66 0 0 0 .69-.163.46.46 0 0 0-.04-.669.83.83 0 0 0-1.157-.04.31.31 0 1 0 .406.466v.001z" fill="#161616"/>
            <path d="M163.343 100.568a333.858 333.858 0 0 1-20.834 27.19c-.244.305.183.732.426.426a333.422 333.422 0 0 0 20.935-27.312c.223-.324-.305-.628-.527-.304z" fill="#161616"/>
            <path d="M142.204 128.448a532.071 532.071 0 0 1 34.08 7.26.305.305 0 0 0 .162-.589 550.838 550.838 0 0 0-34.08-7.259c-.385-.06-.548.527-.162.588z" fill="#161616"/>
            <path d="M142.163 128.347a520.856 520.856 0 0 0 26.777 22.892c.305.244.732-.182.426-.426a524.603 524.603 0 0 1-26.777-22.892c-.284-.264-.732.163-.426.426z" fill="#161616"/>
            <path d="M141.534 92.681c.751 3.345 1.258 8.11-.588 12.977-4.2 11.111-16.39 11.659-21.016 20.723-2.515 4.927-3.143 13.078 4.808 27.27v7.158a35.42 35.42 0 0 1-7.445-5.536c-9.473-9.264-10.934-21.371-11.238-25.974.02-3.325.487-14.132 8.459-23.784 1.805-2.19 8.216-9.692 19.13-12.105a32.691 32.691 0 0 1 7.89-.729z" fill="#6D6C6C" opacity=".21"/>
        </g>
        <g>
            <path d="M81.488 149.536c1.4 3.528 2.8 7.036 4.179 10.564-.83 1.825-2.11 4.521-3.875 7.745-2.313 4.218-3.408 5.637-3.043 6.063.528.608 3.956-.912 17.263-10.868-.829-2.312-1.684-4.644-2.515-7.016a912.039 912.039 0 0 1-3.55-10.24 986.543 986.543 0 0 1-8.459 3.752z" fill="#8E7777"/>
            <path d="M118.896 87.733c2.251 3.832.649 9.774.425 10.565-1.237 4.603-4.036 5.048-14.301 14.76-6.43 6.104-8.276 8.578-9.636 11.295a28.784 28.784 0 0 0-2.78 9.55c.831 4.866 1.663 9.712 2.495 14.58a35.112 35.112 0 0 1-8.928 4.176 35.853 35.853 0 0 1-7.122 1.399 48.043 48.043 0 0 1-3.103-24.048c1.744-12.916 8.58-21.371 14.26-28.387a85.951 85.951 0 0 1 27.209-22.04 11.318 11.318 0 0 0 .406 6.022c.283.744.644 1.458 1.075 2.128z" fill="#4044FC"/>
            <path d="M115.528 82.239a72.586 72.586 0 0 1-8.337 16.16c-8.216 11.943-14.281 12.916-19.13 24.007a52.162 52.162 0 0 0-3.976 16.303 56.243 56.243 0 0 0 .508 13.99 17.263 17.263 0 0 0 4.118-.649 17.035 17.035 0 0 0 6.41-3.467 371.764 371.764 0 0 1-1.42-7.056c-.77-4.136-1.156-6.225-1.156-7.704 0-4.36 1.846-7.644 3.347-10.26.71-1.237 2.78-4.663 10.022-11.294 7.647-6.996 10.832-8.212 12.84-13.342a16.056 16.056 0 0 0 1.157-6.286c-.184-5.331-3.186-9.064-4.383-10.402z" fill="#6D6C6C" opacity=".2"/>
            <path d="M119.889 94.303c-4.159 3.488-10.103 8.699-16.939 15.39-9.92 9.733-11.685 12.571-12.455 13.99-2.15 3.954-5.843 12.957-2.191 27.982a63.618 63.618 0 0 0 3.732-1.663 80.042 80.042 0 0 0 2.962-1.54c-.812-4.746-1.623-9.498-2.435-14.255.076-2.551.598-5.07 1.542-7.441a24.841 24.841 0 0 1 3.205-5.516c1.663-2.27 3.268-3.812 6.41-6.792 2.516-2.393 4.95-4.907 7.567-7.178 4.706-4.076 6.816-5.191 7.951-8.334.529-1.488.75-3.067.65-4.643z" fill="#6D6C6C" opacity=".27"/>
        </g>
        <g>
            <path d="m103.823 149.09 9.25 7.119c-4.097 10.381-4.097 13.078-3.268 13.544 1.38.791 5.903-4.096 8.48-7.684a35.486 35.486 0 0 0 4.402-8.354 73.388 73.388 0 0 0-4.3-4.968 79.41 79.41 0 0 0-6.43-6.105c-2.697 2.17-5.416 4.298-8.134 6.448z" fill="#8E7777"/>
            <path d="M135.468 87.733c1.805 4.785.71 9.41.426 10.564-2.07 8.597-9.756 15.694-12.475 18.168-4.646 4.258-8.5 6.387-10.65 12.064a19.038 19.038 0 0 0-1.177 4.846c1.48 3.387 2.962 6.766 4.442 10.139a21.852 21.852 0 0 1-7.404 8.88 21.032 21.032 0 0 1-5.073 2.536c-3.084-3.143-11.441-12.47-10.995-24.94.345-9.57 5.761-17.275 9.94-23.258 4.199-5.982 5.274-5.252 10.569-12.896 4.585-6.632 5.457-9.652 9.311-10.99 3.875-1.359 9.555-.609 12.05 2.757.433.664.782 1.38 1.036 2.13z" fill="#4044FC"/>
            <path d="M126.036 86.82a24.244 24.244 0 0 1-.548 8.76c-3.245 12.551-15.133 13.646-20.853 27.231-1.116 2.657-3.713 9.084-1.664 16.525 1.583 5.8 5.274 9.57 7.366 11.396a10.416 10.416 0 0 0 3.327-2.78 10.613 10.613 0 0 0 2.09-4.724c-1.441-3.467-2.881-6.954-4.301-10.422a19.977 19.977 0 0 1 2.09-6.123c1.744-3.285 3.853-4.948 6.572-7.401 4.99-4.481 8.175-7.32 10.934-11.233 1.744-2.494 4.28-6.165 5.112-11.538a23.913 23.913 0 0 0-.67-10.26c-3.146.205-6.31.387-9.455.57z" fill="#966BE8" opacity=".24"/>
            <path d="M136.361 93.33a70.262 70.262 0 0 1-8.622 12.429c-8.195 9.429-13.753 11.395-17.567 18.654-1.643 3.121-3.145 8.273-1.298 16.546 2.333.933 4.686 1.866 7.019 2.818-1.481-3.487-2.942-6.954-4.423-10.442.178-2.42.862-4.775 2.009-6.914 1.278-2.352 2.698-3.589 5.822-6.428 5.17-4.704 7.77-7.056 8.824-8.232 2.414-2.656 5.052-5.636 6.715-10.24a24.796 24.796 0 0 0 1.521-8.191z" fill="#6D6C6C" opacity=".25"/>
        </g>
        <g>
            <path d="M86.986 59.468a13.836 13.836 0 0 0-3.246-4.583c-2.19-2.008-5.254-3.447-5.74-2.86-.203.245-.183 1.096 3.509 5.17" stroke="#161616" stroke-width="2" fill="#FFF"/>
            <path d="M79.338 56.143a7.296 7.296 0 0 0-2.942 3.304 4.025 4.025 0 0 0-.385 2.616c.466 1.784 2.617 2.535 2.8 2.615.872.305 1.095.081 1.724.447 1.014.588.976 1.378 1.725 2.108 1.541 1.48 4.665.893 4.808.264.08-.345-.812-.669-.732-1.297.04-.386.426-.548.69-.791 1.42-1.298.06-5.09-.183-5.718-.306-.837-.7-1.64-1.176-2.393" stroke="#161616" stroke-width="2" fill="#FFF"/>
            <path d="M75.666 61.8a4.738 4.738 0 0 0 2.597 2.779c1.257.507 2.19-.162 2.211-1.5a.305.305 0 0 0-.609 0c-.02 1.56-1.56.993-2.332.365a4.096 4.096 0 0 1-1.278-1.804c-.142-.366-.732-.223-.589.162V61.8z" fill="#161616"/>
            <path d="M77.188 60.137c.608 1.136 1.42 2.393 2.677 2.859 1.137.425 1.805-.264 1.927-1.339.04-.385-.568-.385-.608 0-.183 1.602-1.745.488-2.293-.08a7.319 7.319 0 0 1-1.176-1.744c-.183-.345-.71-.04-.528.304zM79.014 57.4c.339.827.753 1.62 1.237 2.372.345.507.832 1.237 1.501 1.359 1.583.304 1.073-1.947.771-2.717-.142-.365-.732-.203-.588.162.142.345.446 1.054.324 1.44-.345 1.115-1.278-.264-1.48-.548a14.634 14.634 0 0 1-1.239-2.372c-.162-.365-.69-.061-.527.304z" fill="#161616"/>
            <path d="M79.318 56.487c.608-.304 1.359.244 1.784.65.408.417.725.914.934 1.46.142.364.731.202.588-.163-.507-1.257-2.008-3.267-3.61-2.474-.345.163-.04.69.304.527z" fill="#161616"/>
            <path d="M123.318 50.263c.649 1.926-.345 3.568-3.122 8.515-4.666 8.233-4.95 8.962-6.025 10.26-2.537 3.042-3.977 4.765-6.635 5.88-4.848 2.029-10.224.245-13.165-.87a24.265 24.265 0 0 1-6.086-3.428c-.893-.731-1.582-1.297-2.028-1.642-.933-.75-1.36-1.073-1.725-1.724a3.827 3.827 0 0 1-.446-1.358c-.304-2.17 1.846-3.994 2.008-4.136-2.576.608-3.469.487-3.631.122-.385-.811 2.414-3.792 4.382-3.121.933.304 1.4 1.358 1.744 2.129.49 1.1.665 2.314.507 3.508a18.669 18.669 0 0 0 5.254 2.514c3.31.949 6.812.99 10.143.121a720.458 720.458 0 0 0 4.767-7.765c5.599-9.287 7.08-12.227 9.656-12.268 1.926-.022 3.833 1.58 4.402 3.263z" stroke="#161616" stroke-width="2" fill="#FFF"/>
            <path d="M85.91 62.287c-1.744-.081-1.987 2.17-2.21 3.447.202.02.405.06.587.08a4.664 4.664 0 0 1 .771-2.17.304.304 0 1 0-.527-.304c-.791 1.278-1.278 2.86-.183 4.117l.426-.426a1.397 1.397 0 0 1-.488-1.034c-.202.02-.405.06-.588.08.099.323.228.636.386.934.182.344.71.04.527-.305a2.71 2.71 0 0 1-.325-.79c-.08-.325-.628-.264-.588.08.034.553.273 1.074.67 1.46.283.284.69-.142.425-.425-.892-1.035-.324-2.353.284-3.387-.182-.101-.345-.203-.527-.304a5.167 5.167 0 0 0-.852 2.474c-.02.344.547.425.588.08.162-.932.304-3.041 1.623-3 .385.02.385-.589 0-.609l.001.002z" fill="#FFF"/>
            <path d="M120.214 47.829a87.237 87.237 0 0 1-6.613 13.848c-3.327 5.656-5.073 8.496-8.074 9.995-6.167 3.062-15.68.994-18.886-4.866a10.275 10.275 0 0 1-1.197-4.947 4.615 4.615 0 0 1-3.122.101c-2.597-1.034-2.84-4.907-4.22-4.866-.912.04-1.582 1.764-1.826 2.392a4.216 4.216 0 0 0-.365 2.474c.324 1.44 1.846 2.575 3.753 2.94a6.55 6.55 0 0 1 2.008 1.46c.67.732.852 1.298 1.561 1.642a2.86 2.86 0 0 0 1.745.183 41.74 41.74 0 0 0 4.402 3.12c4.179 2.555 9.23 5.637 14.95 4.584a14.574 14.574 0 0 0 5.679-2.47c1.846-1.238 3.834-3.103 7.607-9.896a111.469 111.469 0 0 0 5.415-11.193 3.342 3.342 0 0 0-.102-2.656 3.414 3.414 0 0 0-2.715-1.845z" fill="#6D6C6C" opacity=".21"/>
            <path d="M81.833 61.921c-.284.203-.162.609-.507.912a1.167 1.167 0 0 1-.77.203c.013.345-.08.685-.265.975-.284.406-.67.488-.65.65.041.182.61.08 1.157.385.328.2.595.487.77.828 1.34-1.277 2.679-2.535 4.018-3.812a3.74 3.74 0 0 1-2.272.203c-.649-.202-1.134-.587-1.48-.344z" fill="#6D6C6C" opacity=".22"/>
        </g>
        <g>
            <path d="M123.155 46.288c-1.359 1.359-2.07 2.9-3.448 5.982a37.63 37.63 0 0 0-3.449 11.82c-.649 6.003.873 7.364-.344 11.822a19.115 19.115 0 0 1-3.916 7.34 24.182 24.182 0 0 0 9.068 5.738 24.912 24.912 0 0 0 16.31-.121c1.805-4.867 3.59-9.733 5.396-14.58.02-4.116.182-7.624.344-10.34a180.19 180.19 0 0 1 1.501-14.478c.488-3.548.995-6.529 1.38-8.719-3.701.19-7.387.61-11.035 1.258-8.845 1.62-10.934 3.406-11.807 4.278z" stroke="#161616" stroke-width="2" fill="#FFF"/>
            <path d="M133.907 42.152a30.88 30.88 0 0 1 2.353 10.078c.629 10.462-4.422 18.654-8.256 24.859a68.362 68.362 0 0 1-8.44 10.97 21.3 21.3 0 0 0 6.532 2.17c3.758.588 7.605.182 11.158-1.176 1.704-4.906 3.388-9.793 5.092-14.7.101-3.346.284-6.813.548-10.341a247.3 247.3 0 0 1 2.82-23.136l-11.807 1.276z" fill="#6D6C6C" opacity=".19"/>
            <path d="M137.536 41.523a38.347 38.347 0 0 1 2.637 15.877c-.975 18.39-15.539 29.522-18.054 31.388a22.69 22.69 0 0 0 6.167 1.277 22.445 22.445 0 0 0 8.723-1.176c1.866-4.907 3.753-9.793 5.62-14.7 0-4.482.162-9.265.547-14.336a180.974 180.974 0 0 1 2.458-18.878l-8.098.548z" fill="#6D6C6C" opacity=".11"/>
        </g>
        <g>
            <path d="M145.247 40.49a12.446 12.446 0 0 1 5.801 4.156c1.948 2.656 2.374 5.86 1.258 16.018-1.035 9.45-1.927 11.477-2.272 17.155a64.577 64.577 0 0 0 .751 14.619l6.938-1.642a10.508 10.508 0 0 1 4.787 2.656c.751.731 2.333 2.27 1.887 3.528-.284.811-1.317 1.22-1.765 1.38a4.95 4.95 0 0 1-2.394.243c-1.683-.101-3.366-.162-5.05-.244a35.896 35.896 0 0 0-3.652 0c2.049 1.764 2.92 2.9 2.657 3.406-.364.67-2.8.203-7.323-1.378a200.809 200.809 0 0 0-1.014-7.178c-1.258-7.948-2.17-10.787-2.78-15.005-.63-4.36-.426-8.293 0-16.14a251.9 251.9 0 0 1 2.17-21.575z" stroke="#161616" stroke-width="2" fill="#FFF"/>
            <path d="M154.66 95.66c1.56-.649 3.184-.283 4.685.386a11.34 11.34 0 0 1 3.53 2.19c.284.263.71-.163.426-.426a12.31 12.31 0 0 0-4.078-2.454c-1.521-.628-3.164-.912-4.747-.264-.324.122-.162.71.183.568zM156.648 93.796c2.698-.527 5.903 1.072 7.384 3.364.223.324.751.02.528-.304-1.664-2.536-5.074-4.218-8.074-3.63-.386.061-.223.65.162.568v.002zM158.98 92.397a6.715 6.715 0 0 1 2.942 1.014c.345.182.65-.345.304-.528a7.537 7.537 0 0 0-3.245-1.095c-.385-.02-.385.588 0 .608z" fill="#161616"/>
            <path d="M145.53 40.976a42.459 42.459 0 0 1 3.186 10.807c1.765 11.72-2.577 17.824-1.805 30.496a53.327 53.327 0 0 0 2.637 13.525 16.77 16.77 0 0 1 6.999-.732c2.049.244 3.063.365 4.077 1.095 1.015.73 1.603 1.704 2.638 1.643a1.42 1.42 0 0 0 1.176-.629c.548-.994-.953-2.697-1.46-3.267a10.454 10.454 0 0 0-4.99-3.082l-7.182 1.46a47.498 47.498 0 0 1-1.177-9.793c-.06-3.65.589-8.07 1.907-16.79.244-1.622.548-4.886 1.177-11.435.203-2.15.365-4.076-.365-6.448-.366-1.196-1.258-3.914-3.895-5.617a8.1 8.1 0 0 0-2.922-1.233z" fill="#6D6C6C" opacity=".16"/>
            <path d="M149.973 98.237a6.231 6.231 0 0 0 1.988 2.636c.71.527 1.948 1.176 2.171.912.284-.324-.791-2.109-2.455-3.001a4.963 4.963 0 0 0-1.704-.547z" fill="#6D6C6C" opacity=".22"/>
            <path d="M152.246 57.663a57.647 57.647 0 0 0-3.449 23.237 56.982 56.982 0 0 0 2.353 13.058 45.457 45.457 0 0 1-1.46-9.61c-.244-6.064.852-9.47 1.988-20.602.284-2.575.466-4.704.568-6.083z" fill="#6D6C6C" opacity=".4"/>
            <path d="M156.344 93.33c-.04-.244 1.988-1.177 3.996-.732 2.698.609 3.956 3.447 4.179 3.995a9.228 9.228 0 0 0-4.727-3.001c-1.887-.425-3.429-.06-3.448-.262z" fill="#6D6C6C" opacity=".22"/>
        </g>
        <g>
            <path d="M115.69 36.332c-.852.791-1.035 2.454-1.38 5.718-.385 3.752-.547 5.657.244 6.61 1.441 1.744 4.544 1.846 6.695.893 2.536-1.135 3.408-3.589 3.631-4.197.994-2.818.67-7.077-2.333-9.023-2.03-1.339-5.173-1.562-6.857 0z" fill="#212121"/>
            <path d="M120.072 39.293c.304 1.46 1.927 1.581 3.306 3.913a9.321 9.321 0 0 1 1.22 4.643 13.508 13.508 0 0 0 9.98-4.704c-.507-.829-1.257-2.048-2.15-3.508-3.854-6.184-4.422-6.67-5.193-6.875-3.127-.748-7.752 3.814-7.163 6.53z" stroke="#161616" stroke-width="2" fill="#FFF"/>
            <path d="M114.513 43.125a3.997 3.997 0 0 0 4.469 3.703 4.001 4.001 0 0 0 3.463-4.656 7.763 7.763 0 0 1 1.38 2.292c.267.681.432 1.399.488 2.128-.305.508-1.887 3.024-4.849 3.508-.507.081-3.388.507-4.747-1.219a4.655 4.655 0 0 1-.75-2.717 7.585 7.585 0 0 1 .546-3.04z" fill="#161616" opacity=".74"/>
            <path d="M105.993 22.26c-.933 1.724-.71 3.468-.264 6.875.528 3.853 1.22 7.077 2.05 9.206a.737.737 0 0 0 .79.466 8.706 8.706 0 0 0 1.501-.507 11.872 11.872 0 0 0 2.557 3.143 12.09 12.09 0 0 0 6.45 2.798 12.336 12.336 0 0 0 6.127-4.927 11.624 11.624 0 0 0 1.623-4.501 10.93 10.93 0 0 0-1.096-6.124 4.292 4.292 0 0 0 1.522-1.521c.933-1.642.893-4.36-.588-5.09-1.116-.547-2.879.061-4.078 1.623a11.68 11.68 0 0 0-1.866-2.454 12.586 12.586 0 0 0-3.733-2.636c-3.651-1.44-9.088.142-10.995 3.65z" stroke="#161616" stroke-width="2" fill="#FFF"/>
            <path d="M126.38 36.84a33.896 33.896 0 0 1-3.184 5.677l.488-.06a6.389 6.389 0 0 1-.345-.447c-.024.12-.037.243-.04.365.51-.433.949-.947 1.297-1.52-.183-.102-.345-.203-.528-.304a2.31 2.31 0 0 1-1.237 1.237l.365.487a23.062 23.062 0 0 0 2.86-3.267c.223-.324-.305-.628-.528-.304a21.418 21.418 0 0 1-2.758 3.143c-.264.244.08.609.365.488a2.85 2.85 0 0 0 1.46-1.46.304.304 0 1 0-.527-.304c-.337.515-.74.986-1.197 1.399a.28.28 0 0 0-.04.365c.12.21.27.402.446.567a.32.32 0 0 0 .488-.06 33.118 33.118 0 0 0 3.186-5.678c.121-.365-.406-.67-.568-.324h-.002zM111.207 39.86c1.4-.365 2.212-1.54 2.922-2.696.202-.324-.325-.629-.528-.304-.629 1.013-1.339 2.088-2.556 2.433-.385.08-.223.669.162.567z" fill="#161616"/>
            <path d="M113.154 36.738a1.346 1.346 0 0 1 .995.487c.263.304.69-.142.425-.425a1.93 1.93 0 0 0-1.42-.67c-.406-.02-.406.589 0 .61v-.002zM112.775 33.268v-.09a.435.435 0 0 0-.147-.322.527.527 0 0 0-.353-.133.527.527 0 0 0-.354.133.435.435 0 0 0-.146.321v.091c.003.12.057.234.15.318a.539.539 0 0 0 .35.137.563.563 0 0 0 .344-.142.47.47 0 0 0 .156-.313zM113.959 31.858a.553.553 0 0 0 .355-.158.483.483 0 0 0 .145-.342.483.483 0 0 0-.145-.342.553.553 0 0 0-.355-.158.553.553 0 0 0-.356.158.483.483 0 0 0-.144.342c0 .127.052.25.144.342.093.093.22.15.356.158zM113.776 33.399a.554.554 0 0 0 .356-.158.483.483 0 0 0 .144-.342.483.483 0 0 0-.144-.342.554.554 0 0 0-.356-.158.553.553 0 0 0-.355.158.483.483 0 0 0-.145.342c0 .127.052.25.145.342.093.093.22.15.355.158z" fill="#161616"/>
            <path d="M105.852 28.181a5.2 5.2 0 0 1-2.82-2.17c-1.238-2.108-.244-4.562.244-5.718.264-.649.994-2.25 4.524-5.393 2.677-2.413 4.036-3.608 5.558-4.278 5.437-2.372 10.995-.102 12.009.324 1.501.609 2.597 1.359 4.767 2.818 2.637 1.785 4.32 2.94 5.64 4.928 1.602 2.433.628 3.061 2.008 5.799 2.19 4.34 5.213 3.812 7.018 7.827.305.669 1.988 4.4.081 7.664-1.56 2.657-4.747 3.608-7.1 3.548-4.28-.122-6.999-3.73-8.54-5.799a18.744 18.744 0 0 1-3.57-9.166c1.967-1.177 2.637-3.285 1.947-4.623-.508-.953-1.907-1.906-3.145-1.38a2.525 2.525 0 0 0-1.38 2.414 9.058 9.058 0 0 1-9.268-4.197 14.919 14.919 0 0 0-4.767 2.98 14.474 14.474 0 0 0-3.206 4.422z" fill="#212121"/>
            <path d="M119.078 29.357a16.182 16.182 0 0 1 3.692 5.232 15.694 15.694 0 0 1 1.197 7.745c.732-1.237 1.44-2.473 2.17-3.73 1.177 2.636 2.333 5.272 3.51 7.887a6.928 6.928 0 0 0 3.063-1.56 6.579 6.579 0 0 0 1.643-2.23 20.464 20.464 0 0 1-6.999-8.72 19.528 19.528 0 0 1-1.38-5.332c1.745-1.237 2.395-3.224 1.745-4.644-.406-.912-1.582-2.068-2.9-1.703a2.526 2.526 0 0 0-1.705 2.84 9.673 9.673 0 0 1-9.23-4.18c.548 3.59 1.928 5.537 3.084 6.652.73.75 1.035.75 2.11 1.743z" fill="#6D6C6C" opacity=".24"/>
            <path d="M125.975 30.33c-.142 0-.06 2.089-.264 4.015a18.367 18.367 0 0 1-1.602 5.759 7.267 7.267 0 0 0 3.327-5.656 8.626 8.626 0 0 1-.65-1.196c-.71-1.624-.69-2.921-.81-2.921z" fill="#6D6C6C" opacity=".24"/>
            <path d="M126.685 37.368a23.473 23.473 0 0 0 2.07 1.906c2.698 2.25 5.317 3.528 5.395 3.386.079-.141-2.474-1.176-4.422-3.974-1.22-1.744-1.927-3.812-2.231-3.71-.142.04-.02.527-.264 1.316-.136.38-.32.742-.548 1.076z" fill="#6D6C6C" opacity=".19"/>
            <path d="M128.937 13.015a100.061 100.061 0 0 1 5.254 10.421c3.225 7.523 2.961 9.591 2.515 10.93-.994 3.023-3.753 4.724-5.396 5.535a8.623 8.623 0 0 0 5.17 3.447c.589.121 4.139.79 6.837-1.663a7.553 7.553 0 0 0 2.373-4.827c.366-3.406-1.663-5.961-2.313-6.691-.852-.953-1.034-.732-3.024-2.657-1.542-1.48-2.293-2.23-2.739-3.163-.71-1.52-.244-2.17-1.073-4.096a11.558 11.558 0 0 0-1.359-2.311c-1.965-2.655-4.805-4.216-6.245-4.925z" fill="#161616" opacity=".74"/>
            <path d="M110.7 30.494c.203.406.203.994-.061 1.115-.264.142-.771-.244-.954-.69-.141-.385-.101-.932.163-1.034.284-.102.69.263.852.609zM109.036 30.026a13.315 13.315 0 0 1 2.191-.547c.284-.04.162-.488-.122-.446-.744.12-1.477.303-2.19.547a.231.231 0 1 0 .121.446z" fill="#161616"/>
        </g>
    </g>
</svg>
