<svg width="316" height="228" viewBox="0 0 316 228" xmlns="http://www.w3.org/2000/svg">
    <g fill="none" fill-rule="evenodd">
        <ellipse fill-opacity=".166" fill="#898989" fill-rule="nonzero" cx="134.5" cy="107" rx="107.5" ry="107"/>
        <ellipse fill="#F2F2F2" fill-rule="nonzero" cx="43" cy="221.5" rx="43" ry="6.5"/>
        <ellipse fill="#F2F2F2" fill-rule="nonzero" cx="250" cy="209.5" rx="66" ry="10.5"/>
        <path d="M236.223 109s.54 1.875-2.521 3.563c-3.063 1.688-3.963 8.064-.36 9.94 3.602 1.875 4.683 4.313 2.881 6.001-1.8 1.688-5.043 6.189-.72 7.314s4.864 3.376 3.603 4.314c-1.261.937 2.882-1.688 2.882-1.688s.72 4.5 4.503 3.375c3.783-1.125 14.41-22.504 9.007-25.505-5.404-3-19.275-7.314-19.275-7.314z" fill="#2F2E41" fill-rule="nonzero"/>
        <path d="M242.212 126.735s1.923 6.911-1.443 7.405a12.956 12.956 0 0 0-5.769 2.468l6.25 8.392h11.538l7.212-7.405s-9.615-7.405-7.692-11.847c1.923-4.443-10.096.987-10.096.987z" fill="#FFB9B9" fill-rule="nonzero"/>
        <path d="M242.212 126.735s1.923 6.911-1.443 7.405a12.956 12.956 0 0 0-5.769 2.468l6.25 8.392h11.538l7.212-7.405s-9.615-7.405-7.692-11.847c1.923-4.443-10.096.987-10.096.987z" fill="#000" fill-rule="nonzero" opacity=".1"/>
        <path fill="#FFB9B9" fill-rule="nonzero" d="m244 212.455 11.795 4.04L264 217l-.513-7.07-16.923-4.93z"/>
        <path d="M260 210.214s0 6.548.952 6.548 13.804-1.403 17.612 0c3.808 1.403 9.52-3.742 6.664-6.548-2.856-2.807-7.515-7.017-10.421-6.081-2.907.935-14.807 3.274-14.807 3.274v2.807zM223.396 204s-6.038 11.697-2.012 12.672c4.025.975 8.553-.487 9.056-.975.503-.487 7.547-2.437 8.554-1.462 1.006.975 1.006-3.899 1.006-3.899L223.396 204z" fill="#575A89" fill-rule="nonzero"/>
        <path d="M229.772 187s-8.936 12.915-2.351 16.392c6.584 3.477 38.096 3.477 40.448 0 2.352-3.477 3.292-14.405 0-15.399-3.292-.993-38.097-.993-38.097-.993z" fill="#2F2E41" fill-rule="nonzero"/>
        <path d="M229.772 187s-8.936 12.915-2.351 16.392c6.584 3.477 38.096 3.477 40.448 0 2.352-3.477 3.292-14.405 0-15.399-3.292-.993-38.097-.993-38.097-.993z" fill="#000" fill-rule="nonzero" opacity=".2"/>
        <circle fill="#FFB9B9" fill-rule="nonzero" cx="247" cy="119" r="11"/>
        <path d="m228 135.96 9.773-1.96s2.443 7.84 10.261 6.37c7.818-1.47 9.773-6.37 9.773-6.37s5.863 2.45 6.352 2.45c.489 0 6.841 2.45 6.841 3.92 0 1.47-7.33 16.17-7.33 16.17l.978 26.46-36.16-.98 2.444-25.97L228 135.96z" fill="#4044FC" fill-rule="nonzero"/>
        <path d="M223.737 150s-3.088 25.764-1.03 27.708C224.768 179.653 233 185 233 185v-5.833l-4.117-7.292L233 154.861 223.737 150zM273 149s-1.878 26.626-1.878 27.603c0 .977-4.83 4.397-6.44 4.397-1.609 0-2.682-2.443-2.682-2.443l3.756-3.908-2.683-20.03L273 149z" fill="#FFB9B9" fill-rule="nonzero"/>
        <path d="M269.111 185.237s21.399-11.784 21.875 0c.475 11.785-10.938 16.499-10.938 16.499s-29.482 8.763-30.671 5.56c-1.19-3.204-3.567-8.389-1.665-8.86 1.903-.471 4.28-1.414 5.231-.471.951.942 12.84-7.071 12.84-7.071l3.328-5.657z" fill="#2F2E41" fill-rule="nonzero"/>
        <path d="M280 185s-4.179 1.867-5.571 3.267C273.036 189.667 267 192 267 192" stroke="#000" stroke-width="2" opacity=".2"/>
        <path d="m232.028 138-2.957-1s-10.843 11.5-7.393 14.5 5.422 4 6.407 5c.986 1 5.915 1.5 5.915 1.5l-1.972-20zM267.47 140l4.159 1.029s3.235 7.714 4.159 8.742c.924 1.029-1.387.515-2.773 2.572-1.386 2.057-2.773 5.657-5.545 5.657-2.773 0-6.47-5.143-6.47-5.143L267.47 140z" fill="#4044FC" fill-rule="nonzero"/>
        <path d="M229.765 191.148s-17.883-13.423-24-3.48c-6.118 9.943 26.353 23.366 31.058 25.355a282.673 282.673 0 0 1 8.942 3.977S250 206.063 250 204.074c0-1.989-3.294-1.989-4.235-1.989-.942 0-5.177-.994-6.118-2.485-.941-1.492-9.882-8.452-9.882-8.452z" fill="#2F2E41" fill-rule="nonzero"/>
        <path d="M220 186s4.839 3.765 9.194 4.706C233.548 191.647 235 194 235 194" stroke="#000" stroke-width="2" opacity=".2"/>
        <path d="m227 168.55.38 19.994a2.512 2.512 0 0 0 2.547 2.456l37.446-.418a2.512 2.512 0 0 0 2.486-2.359l1.137-19.576a2.494 2.494 0 0 0-.683-1.862 2.527 2.527 0 0 0-1.832-.785h-38.962c-.676 0-1.324.27-1.798.75a2.495 2.495 0 0 0-.72 1.8z" fill="#575A89" fill-rule="nonzero"/>
        <path d="M245.807 105s.601 2.046-2.803 3.887c-3.405 1.841-4.406 8.797-.4 10.843 4.005 2.046 5.206 4.706 3.203 6.547-2.002 1.842-5.607 6.752-.8 7.98 4.806 1.227 5.407 3.682 4.005 4.705-1.402 1.023 3.204-1.842 3.204-1.842s.801 4.91 5.007 3.683c4.206-1.228 8.402-23.541 3.714-29.288-4.36-5.344-15.13-6.515-15.13-6.515z" fill="#2F2E41" fill-rule="nonzero"/>
        <path d="M246 103.414c.001-3.033 9.24-.854 13.202 3.38 2.743 2.932 6.91 7.343 3.418 10.452-3.492 3.11 5.984 7.186 8.526 8.421 2.541 1.236 7.559 5.015 3.028 7.55-4.53 2.536-4.458 5.095-2.752 5.701 1.705.606-3.76-.901-3.76-.901s.552 5.007-4.051 4.983c-4.604-.024-17.812-24.867-14.657-31.773 2.934-6.42-2.954-7.813-2.954-7.813z" fill="#2F2E41" fill-rule="nonzero"/>
        <path d="M248.815 104.042c-11.646-.734-12.815 8.443-12.815 8.443.08 5.311 8.137 2.723 10.375 3.515 2.7-2.033 7.903-5.88 11.625-8.625a17.098 17.098 0 0 0-9.185-3.333z" fill="#2F2E41" fill-rule="nonzero"/>
        <path d="M244 161s-10.883-51.002-79-88" stroke="#3F3D56" stroke-width="2"/>
        <path fill="#3F3D56" fill-rule="nonzero" d="m166.922 72 .078.409-1.578.489.497 1.974-.314.128-.605-2.404z"/>
        <path d="M20 212.431c0 6.351-4.03 8.569-9 8.569a16.506 16.506 0 0 1-1.029-.033C5.485 220.67 2 218.337 2 212.431c0-6.113 8.337-13.826 8.963-14.397v-.001A4.9 4.9 0 0 1 11 198s9 8.08 9 14.431z" fill="#4044FC" fill-rule="nonzero"/>
        <path d="m10.356 220.032 3.053-4.31-3.06 4.783-.009.495a13.489 13.489 0 0 1-.634-.03l.329-6.355-.003-.049.006-.01.03-.6L7 209.162l3.079 4.345.007.128.248-4.802-2.627-4.956 2.66 4.113.258-9.955.001-.034v.033l-.043 7.85 2.616-3.112-2.627 3.788-.069 4.3 2.443-4.126-2.453 4.758-.039 2.39L14 208.14l-3.559 6.577-.085 5.316z" fill="#3F3D56" fill-rule="nonzero"/>
        <path d="m61.54 212.31 1.933-1.31s1.28 6.52-.148 7.497c-1.427.977-6.78 2.605-6.78 4.56 0 1.953-12.13 4.558-12.488 1.627-.357-2.93 1.07-4.559 1.07-4.559s5.71-5.21 6.423-6.187c.714-.977 2.498-2.93 2.498-2.93l7.493 1.302z" fill="#2F2E41" fill-rule="nonzero"/>
        <path d="M34 127.732s.051.298.14.845c.082.485.195 1.17.331 2.015 1.435 8.695 5.62 34.293 5.337 35.138-.342 1.018-2.733 4.75 0 5.767.263.099.546.418.85.92a19.646 19.646 0 0 1 1.445 3.386c1.63 4.695 3.372 12.21 4.38 17.414.44 2.287.741 4.126.83 5.09.03.222.034.448.01.671-.341 1.357 2.05 6.107 3.075 7.464 1.025 1.357 2.733 2.714 2.391 4.071-.341 1.357 8.54 5.09 9.566 2.714 1.024-2.375 1.024-3.732 1.366-4.41.342-.679.683-5.428-1.025-6.107-1.708-.679-.683-12.553-2.391-14.928-.57-.79-1.442-3.467-2.354-6.687-.359-1.262-.72-2.605-1.076-3.952a445.113 445.113 0 0 1-2.72-11.074l.342-39.694L35.708 124l-.482 1.055-.96 2.093-.266.584zM32.368 192.21s-2.642-2.723-3.963 0c-1.321 2.724-2.642 13.276-4.954 15.66-2.311 2.382-5.283 14.297-1.981 14.978 3.302.68 6.935-1.022 7.265-3.064.33-2.043 7.265-12.595 7.265-13.617 0-1.02-4.623-4.765-4.623-4.765l.99-9.192z" fill="#2F2E41" fill-rule="nonzero"/>
        <path d="M75 109.918s-4.39 39.089-5.404 42.764c-1.013 3.675-6.417 17.707-8.106 20.046-1.689 2.338-12.497 21.382-13.848 22.384-1.351 1.002-4.053 3.675-4.053 3.675s-5.066 5.012-5.742 6.014c-.675 1.002-6.417-2.005-6.755-4.01-.338-2.004.338-5.345.676-6.681.337-1.337-.676-3.341.337-4.343 1.014-1.003 6.08-6.014 6.08-8.353 0-2.338 8.781-16.036 12.159-19.043 3.378-3.007 2.702-8.019 2.702-8.019v-20.38l-18.576-5.68s1.013-16.036 3.377-16.036 33.438-5.345 37.153-2.338z" fill="#2F2E41" fill-rule="nonzero"/>
        <circle fill="#9F616A" fill-rule="nonzero" cx="47" cy="42" r="11"/>
        <path d="M50.517 50.058s1.41 5.336 3.174 6.76c1.763 1.422-4.585 7.47-4.585 7.47L37.116 65 35 58.24s3.88-7.827 2.821-12.807c-1.058-4.981 12.696 4.625 12.696 4.625z" fill="#9F616A" fill-rule="nonzero"/>
        <path d="M55.85 55s-3.072.33-3.755 1.318c-.683.989-5.463 3.955-9.218 3.296-3.756-.66-6.146-1.648-6.829-1.319-.682.33-2.048 7.25-2.048 7.25l3.756 10.546-.683 29L36.048 113s-2.048-2.636 6.146-.989c8.194 1.648 18.778-1.318 22.192-1.647 3.414-.33 9.218-1.319 9.56-3.296.34-1.977-1.025-9.227-1.025-9.227l-5.463-22.08-3.414-11.863L55.85 55z" fill="#4044FC" fill-rule="nonzero"/>
        <path d="M53 53.734s2.668-1.534 3.615-.166c.946 1.367 12.933 3.42 12.933 4.445 0 1.026 2.523 28.725 1.892 31.119-.63 2.394 1.262 5.13 1.262 5.13l2.208 10.258s5.993 19.492 3.47 20.176c-2.524.684-4.732 0-5.678 0-.946 0-.63-12.995-3.154-16.414-2.524-3.42-5.994-11.969-6.625-13.679-.63-1.71-8.516-25.305-8.201-28.04C55.037 63.826 53 53.733 53 53.733zM36.913 55s-2.65 0-2.981.674c-.332.674-3.644 5.054-4.97 6.065C27.639 62.75 23 67.131 23 68.142c0 1.01 9.607 8.424 9.607 8.424s3.975 19.881 1.987 26.62c-1.987 6.74-4.969 22.914-3.644 23.925 1.325 1.01 4.307 1.348 4.307 0s1.987-15.837 3.643-18.87c1.657-3.033 6.626-22.24 4.638-27.631C41.551 75.218 36.913 55 36.913 55z" fill="#D0CDE1" fill-rule="nonzero"/>
        <path d="M81.992 89s.338 9.95-3.38 15.086C74.897 109.222 72.53 115 72.53 115s-6.082-1.605-7.096-3.53c-1.014-1.927-7.434-.322-7.434-.964 0-.642 7.772-3.852 8.448-4.494.676-.642 3.041-.642 4.393-1.926 1.351-1.284 1.69-4.172 1.69-4.172l1.351-8.346L81.992 89z" fill="#9F616A" fill-rule="nonzero"/>
        <path d="M53.97 34.244c.843-.077 1.711-.161 2.456-.563 1.668-.9 2.11-3.463.84-4.87a6.292 6.292 0 0 0-1.166-.938l-2.522-1.718c-1.116-.76-2.258-1.531-3.559-1.89-1.177-.323-2.42-.29-3.638-.214-2.365.147-4.744.45-6.969 1.267-2.224.817-4.299 2.183-5.646 4.133-2.136 3.091-2.165 7.26-.989 10.829 1.177 3.568 3.41 6.676 5.612 9.72l1.143-5.576c.102-.496.233-1.04.646-1.334 1.026-.73 2.282.769 3.541.76.81-.007 1.489-.673 1.795-1.422.307-.75.327-1.579.398-2.385.15-1.708.747-4.085 2.364-5.027 1.507-.878 4-.619 5.694-.772z" fill="#2F2E41" fill-rule="nonzero"/>
        <path d="M55 127.106s-1.078 33.833-1.716 34.872c-.639 1.039 0-34.978 0-34.978l1.716.106z" fill="#000" fill-rule="nonzero" opacity=".1"/>
        <path d="M67 58h2.838s12.06 15.333 10.642 16.333c-1.42 1 0 3.667 0 3.667l2.838 5s3.547 3 2.483 3.667C84.737 87.333 83.318 90 83.318 90s-7.095-1-9.223 3l-4.601-5.458L67 58z" fill="#D0CDE1" fill-rule="nonzero"/>
        <path fill="#2F2E41" fill-rule="nonzero" d="m58.712 67.105 9.304-3.833 7.16 17.297-9.304 3.833z"/>
        <ellipse fill="#4044FC" fill-rule="nonzero" transform="rotate(-22.438 66.22 71.711)" cx="66.22" cy="71.711" rx="2.013" ry="1.846"/>
        <path d="M60.685 84.705S36.19 105.227 32.109 98.728c-4.083-6.498 4.422-11.97 4.422-11.97s7.484.341 15.99-5.131l8.504-3.762s7.764-11.145 10.41-6.901-4.516 11.63-10.75 13.741z" fill="#9F616A" fill-rule="nonzero"/>
        <path d="M26.878 67 23.3 68.384v10.38L22 80.839s.325 4.152 1.3 5.19c.976 1.038 2.927.692 2.277 3.114a13.927 13.927 0 0 0-.325 4.844s5.853 7.958 6.178 6.92c.325-1.038 4.878-13.84 5.528-13.84.65 0-6.503-20.067-6.503-20.067h-3.577z" fill="#D0CDE1" fill-rule="nonzero"/>
        <path d="M72.864 119s3.338-4.024 1.669-4.225c-1.67-.201-7.48-4.225-8.45-2.213-.968 2.012 6.78 6.438 6.78 6.438z" fill="#2F2E41" fill-rule="nonzero"/>
        <ellipse fill="#57B894" fill-rule="nonzero" cx="138.5" cy="52" rx="5.5" ry="2"/>
        <path d="M157 60c-11-4.175-22-4.175-33 0V46.447a56.85 56.85 0 0 1 33 0V60z" stroke="#3F3D56" stroke-width="2"/>
        <path d="M153 58c-7.667-3.131-15.333-3.131-23 0V47.835a36.946 36.946 0 0 1 23 0V58z" stroke="#3F3D56" stroke-width="2"/>
        <ellipse stroke="#3F3D56" stroke-width="2" cx="140.5" cy="51" rx="5.5" ry="2"/>
        <ellipse fill="#57B894" fill-rule="nonzero" transform="rotate(-11.535 141.7 67.766)" cx="141.7" cy="67.766" rx="4.889" ry="2.583"/>
        <path d="M162 72.09c-11.598-1.96-22.367.344-32.305 6.91L127 65.162c9.885-5.585 21.123-7.989 32.305-6.91L162 72.09z" stroke="#3F3D56" stroke-width="2"/>
        <path d="M157 72.393c-8.285-1.306-15.976.23-23.075 4.607L132 67.775a41.526 41.526 0 0 1 23.075-4.607L157 72.393z" stroke="#3F3D56" stroke-width="2"/>
        <ellipse stroke="#3F3D56" stroke-width="2" transform="rotate(-11.535 143.161 66.297)" cx="143.161" cy="66.297" rx="4.889" ry="2.583"/>
        <ellipse fill="#57B894" fill-rule="nonzero" transform="rotate(-86.019 140.687 83.816)" cx="140.687" cy="83.816" rx="2.582" ry="4.889"/>
        <path d="M159.06 94c-10.73-5.146-21.75-5.947-33.06-2.402l.94-14.107c11.006-2.613 22.506-1.778 33.06 2.402L159.06 94z" stroke="#3F3D56" stroke-width="2"/>
        <path d="M154.336 90c-7.574-3.43-15.353-3.965-23.336-1.601l.664-9.405A41.026 41.026 0 0 1 155 80.595L154.336 90z" stroke="#3F3D56" stroke-width="2"/>
        <ellipse stroke="#3F3D56" stroke-width="2" transform="rotate(-86.019 142.488 83.614)" cx="142.488" cy="83.614" rx="2.582" ry="4.889"/>
        <path d="M118 60.494S96.998 57.334 82 67" stroke="#3F3D56" stroke-width="2"/>
        <path fill="#3F3D56" fill-rule="nonzero" d="m83.598 64 .314.127-.491 1.98L85 66.59l-.077.41L83 66.412z"/>
    </g>
</svg>
